<svg xmlns="http://www.w3.org/2000/svg" xmlns:xlink="http://www.w3.org/1999/xlink" width="1024" zoomAndPan="magnify" viewBox="0 0 768 767.999994" height="1024" preserveAspectRatio="xMidYMid meet" version="1.0"><defs><clipPath id="b35ed631f9"><path d="M 36.390625 76.800781 L 705.390625 76.800781 L 705.390625 667.800781 L 36.390625 667.800781 Z M 36.390625 76.800781 " clip-rule="nonzero"/></clipPath></defs><g clip-path="url(#b35ed631f9)"><path fill="#000000" d="M 413.28125 665.667969 C 413.265625 665.671875 412.496094 665.824219 412.488281 665.824219 C 393.203125 669.449219 374.464844 657.046875 370.34375 637.789062 L 349.992188 542.726562 L 290.40625 640.957031 C 284.78125 650.226562 276.003906 656.417969 266.273438 658.984375 C 263.261719 661.492188 259.804688 663.554688 255.96875 665.03125 L 255.96875 665.035156 C 244.6875 669.386719 232.09375 668.75 221.308594 663.28125 C 210.527344 657.8125 202.578125 648.023438 199.433594 636.355469 L 174.226562 542.765625 L 111.519531 646.136719 C 99.90625 665.28125 75.042969 671.519531 55.757812 660.128906 L 61.203125 661.617188 L 55.722656 660.105469 C 37.320312 649.234375 31.203125 625.523438 42.046875 607.109375 L 95.109375 517.027344 C 99.613281 509.382812 102.105469 500.71875 102.351562 491.847656 L 104.636719 409.625 C 104.878906 400.875 106.328125 392.199219 108.933594 383.84375 L 149.785156 252.894531 C 154.574219 237.546875 165.265625 224.726562 179.511719 217.261719 C 193.753906 209.789062 210.382812 208.285156 225.738281 213.070312 L 257.179688 222.871094 C 274.03125 228.125 287.757812 240.457031 294.773438 256.644531 L 313.535156 299.929688 L 322.382812 271.570312 C 328.511719 251.933594 342.191406 235.53125 360.417969 225.972656 C 366.046875 223.019531 371.96875 220.796875 378.042969 219.3125 C 370.171875 204.929688 367.917969 187.492188 373.183594 170.621094 C 383.476562 137.628906 418.625 119.199219 451.628906 129.488281 C 484.632812 139.777344 503.070312 174.910156 492.777344 207.902344 C 487.476562 224.890625 475.585938 238.019531 460.789062 245.351562 C 466.066406 251.359375 470.441406 258.207031 473.691406 265.703125 L 495.933594 317.019531 C 496.808594 319.03125 498.546875 320.542969 500.667969 321.117188 L 571.660156 340.421875 L 571.671875 340.425781 L 614.441406 340.425781 C 641.03125 340.425781 663.609375 359.894531 667.503906 386.1875 L 704.824219 638.105469 C 706.832031 651.628906 697.472656 664.234375 683.945312 666.238281 C 670.414062 668.242188 657.804688 658.886719 655.796875 645.363281 C 655.796875 645.363281 642.046875 552.542969 642.046875 552.542969 L 517.964844 552.542969 L 504.210938 645.363281 C 502.207031 658.886719 489.597656 668.242188 476.066406 666.238281 C 462.539062 664.234375 453.179688 651.628906 455.183594 638.105469 L 492.191406 388.316406 L 473.300781 384.371094 C 461.757812 381.957031 451.773438 374.773438 445.816406 364.597656 L 431.96875 340.941406 L 413.722656 399.421875 C 411.097656 407.839844 410.492188 416.757812 411.953125 425.453125 L 444.632812 619.839844 C 448.199219 641.054688 434.347656 661.296875 413.28125 665.667969 Z M 408.53125 644.796875 C 408.558594 644.789062 408.6875 644.765625 408.832031 644.734375 C 409.167969 644.667969 409.269531 644.644531 409.449219 644.601562 C 418.960938 642.34375 425.152344 633.082031 423.519531 623.386719 L 390.839844 429 C 388.824219 416.992188 389.660156 404.675781 393.289062 393.050781 L 418.746094 311.441406 C 420.007812 307.394531 423.542969 304.476562 427.753906 303.996094 C 431.964844 303.515625 436.0625 305.566406 438.203125 309.222656 L 464.292969 353.792969 C 467.195312 358.75 472.058594 362.25 477.683594 363.421875 L 563.289062 381.320312 C 565.710938 381.828125 568.234375 381.332031 570.285156 379.953125 C 571.890625 378.875 573.101562 377.324219 573.765625 375.539062 C 573.949219 375.039062 574.089844 374.523438 574.1875 373.992188 C 575.199219 368.445312 571.972656 363.039062 566.6875 361.265625 C 566.476562 361.195312 566.261719 361.128906 566.042969 361.070312 L 495.046875 341.765625 C 486.652344 339.480469 479.75 333.507812 476.289062 325.527344 L 454.046875 274.210938 C 450.160156 265.246094 444.058594 257.5625 436.445312 251.789062 C 429.167969 252.195312 421.695312 251.332031 414.332031 249.035156 C 406.859375 246.703125 400.132812 243.101562 394.316406 238.535156 C 386.03125 238.855469 377.84375 241 370.363281 244.921875 C 357.164062 251.84375 347.257812 263.722656 342.820312 277.941406 L 330.277344 318.152344 L 360.910156 318.152344 C 378.609375 318.152344 392.957031 332.492188 392.957031 350.1875 C 392.957031 367.878906 378.609375 382.21875 360.910156 382.21875 L 310.289062 382.21875 L 307.34375 391.65625 C 305.808594 396.570312 304.960938 401.671875 304.816406 406.820312 L 302.542969 488.589844 C 302.179688 501.695312 298.5 514.496094 291.84375 525.792969 L 240.445312 613.050781 L 240.40625 613.113281 L 240.390625 613.144531 C 235.730469 621.167969 238.378906 631.453125 246.339844 636.230469 C 246.339844 636.230469 246.40625 636.269531 246.421875 636.277344 C 246.433594 636.285156 246.441406 636.289062 246.453125 636.296875 C 250.492188 638.65625 255.050781 639.351562 259.328125 638.582031 C 259.574219 638.535156 259.816406 638.5 260.058594 638.476562 C 264.90625 637.40625 269.324219 634.4375 272.101562 629.863281 L 333.761719 528.214844 C 335.796875 524.851562 337.035156 521.066406 337.371094 517.148438 L 339.546875 491.722656 C 340 486.441406 344.25 482.285156 349.539062 481.957031 C 354.832031 481.621094 359.570312 485.210938 360.679688 490.394531 L 391.277344 633.308594 C 392.964844 641.195312 400.632812 646.277344 408.53125 644.796875 Z M 590.152344 389.96875 C 588.027344 392.980469 585.351562 395.609375 582.234375 397.710938 C 575.390625 402.308594 566.980469 403.953125 558.910156 402.265625 L 540.789062 398.476562 L 525.304688 503 L 634.707031 503 L 618.476562 393.445312 C 618.179688 391.445312 616.464844 389.96875 614.441406 389.96875 Z M 311.304688 338.007812 C 307.671875 336.320312 304.691406 333.347656 303.035156 329.527344 L 275.132812 265.152344 C 270.589844 254.679688 261.710938 246.699219 250.808594 243.300781 L 219.363281 233.5 C 209.429688 230.402344 198.671875 231.378906 189.453125 236.210938 C 180.238281 241.042969 173.320312 249.335938 170.222656 259.265625 L 129.371094 390.214844 C 127.347656 396.695312 126.226562 403.429688 126.039062 410.21875 L 123.75 492.445312 C 123.40625 504.929688 119.898438 517.121094 113.558594 527.882812 L 60.496094 617.96875 C 55.640625 626.207031 58.378906 636.820312 66.613281 641.683594 C 66.625 641.691406 66.636719 641.699219 66.648438 641.707031 C 75.835938 647.132812 87.683594 644.160156 93.214844 635.039062 L 155.957031 531.613281 C 158.035156 528.179688 159.296875 524.316406 159.640625 520.316406 L 161.859375 494.390625 C 162.304688 489.214844 166.402344 485.109375 171.574219 484.644531 C 176.75 484.1875 181.511719 487.507812 182.859375 492.523438 L 216.78125 618.449219 C 217.246094 612.925781 218.929688 607.417969 221.925781 602.320312 L 222 602.195312 L 244.105469 564.660156 L 215.046875 431.253906 C 212.324219 418.75 212.898438 405.753906 216.707031 393.535156 L 242.503906 310.847656 C 243.765625 306.800781 247.296875 303.882812 251.507812 303.402344 C 255.722656 302.921875 259.820312 304.972656 261.960938 308.628906 L 289.644531 355.917969 C 291.421875 358.957031 294.675781 360.820312 298.191406 360.820312 L 302.203125 360.820312 C 302.34375 360.820312 302.484375 360.820312 302.625 360.820312 L 360.910156 360.820312 C 366.785156 360.820312 371.550781 356.058594 371.550781 350.183594 C 371.550781 344.3125 366.785156 339.550781 360.910156 339.550781 L 318.308594 339.550781 C 315.980469 339.550781 313.730469 339.066406 311.675781 338.171875 C 311.550781 338.117188 311.425781 338.0625 311.304688 338.007812 Z M 594.167969 361.824219 C 594.878906 363.996094 595.367188 366.257812 595.609375 368.570312 L 614.441406 368.570312 C 627.074219 368.570312 637.800781 377.820312 639.652344 390.3125 L 657.699219 512.132812 C 658.15625 515.210938 657.25 518.332031 655.214844 520.6875 C 653.183594 523.042969 650.226562 524.398438 647.113281 524.398438 L 512.898438 524.398438 C 506.644531 524.398438 500.84375 519.035156 502.316406 512.09375 L 502.816406 508.722656 L 519.800781 394.089844 L 513.183594 392.707031 L 476.359375 641.242188 C 476.085938 643.082031 477.359375 644.796875 479.203125 645.070312 C 481.046875 645.34375 482.761719 644.070312 483.035156 642.230469 L 498.140625 540.277344 C 498.917969 535.027344 503.421875 531.144531 508.726562 531.144531 L 651.28125 531.144531 C 656.589844 531.144531 661.09375 535.027344 661.871094 540.277344 L 676.976562 642.230469 C 677.25 644.070312 678.964844 645.34375 680.808594 645.070312 C 682.648438 644.796875 683.921875 643.082031 683.652344 641.242188 L 646.328125 389.324219 C 643.984375 373.523438 630.421875 361.824219 614.441406 361.824219 Z M 445.253906 149.917969 C 423.53125 143.144531 400.394531 155.273438 393.621094 176.992188 C 386.84375 198.707031 398.980469 221.832031 420.703125 228.605469 C 442.429688 235.378906 465.566406 223.246094 472.339844 201.53125 C 479.113281 179.816406 466.980469 156.6875 445.253906 149.917969 Z M 288.359375 380.636719 C 281.230469 378.277344 275.070312 373.394531 271.167969 366.726562 L 255.726562 340.347656 L 237.144531 399.90625 C 234.4375 408.585938 234.03125 417.820312 235.964844 426.703125 L 260.101562 537.507812 L 273.398438 514.9375 C 278.214844 506.753906 280.882812 497.484375 281.148438 487.996094 L 283.417969 406.226562 C 283.617188 399.117188 284.789062 392.074219 286.90625 385.285156 Z M 253.398438 79.734375 C 286.90625 90.179688 305.625 125.847656 295.175781 159.339844 C 284.726562 192.832031 249.042969 211.542969 215.535156 201.097656 C 182.03125 190.652344 163.3125 154.984375 173.761719 121.492188 C 184.210938 88 219.894531 69.289062 253.398438 79.734375 Z M 247.027344 100.160156 C 224.800781 93.234375 201.128906 105.644531 194.199219 127.863281 C 187.265625 150.078125 199.683594 173.742188 221.910156 180.667969 C 244.136719 187.597656 267.808594 175.1875 274.738281 152.96875 C 281.667969 130.753906 269.253906 107.089844 247.027344 100.160156 Z M 247.027344 100.160156 " fill-opacity="1" fill-rule="evenodd"/></g></svg>