<svg xmlns="http://www.w3.org/2000/svg" xmlns:xlink="http://www.w3.org/1999/xlink" width="1024" zoomAndPan="magnify" viewBox="0 0 768 767.999994" height="1024" preserveAspectRatio="xMidYMid meet" version="1.0"><defs><clipPath id="7b815755c7"><path d="M 30.050781 244 L 737.300781 244 L 737.300781 531.269531 L 30.050781 531.269531 Z M 30.050781 244 " clip-rule="nonzero"/></clipPath></defs><g clip-path="url(#7b815755c7)"><path fill="#000000" d="M 637.914062 466.542969 C 637.914062 479.257812 627.511719 489.660156 614.800781 489.660156 C 602.089844 489.660156 591.6875 479.257812 591.6875 466.542969 C 591.6875 453.828125 602.089844 443.421875 614.800781 443.421875 C 627.511719 443.421875 637.914062 453.828125 637.914062 466.542969 Z M 164.105469 443.421875 C 151.394531 443.421875 140.992188 453.828125 140.992188 466.542969 C 140.992188 479.257812 151.394531 489.660156 164.105469 489.660156 C 176.816406 489.660156 187.21875 479.257812 187.21875 466.542969 C 187.21875 453.828125 176.816406 443.421875 164.105469 443.421875 Z M 737.296875 466.542969 C 737.296875 478.101562 719.960938 481.566406 702.628906 483.878906 C 692.226562 485.035156 682.984375 485.035156 677.203125 485.035156 C 669.113281 511.621094 644.847656 531.269531 614.800781 531.269531 C 585.910156 531.269531 560.484375 511.621094 552.394531 485.035156 L 226.507812 485.035156 C 218.417969 511.621094 194.152344 531.269531 164.105469 531.269531 C 129.4375 531.269531 101.699219 504.683594 99.390625 470.007812 L 84.367188 467.695312 C 68.1875 464.230469 52.007812 461.917969 48.542969 461.917969 C 43.917969 461.917969 39.296875 460.761719 35.828125 457.292969 C 30.050781 451.515625 30.050781 441.113281 30.050781 431.863281 C 30.050781 408.746094 34.675781 382.160156 38.140625 362.511719 C 40.453125 354.421875 40.453125 344.019531 41.609375 335.925781 C 45.074219 323.210938 67.03125 297.78125 84.367188 280.445312 L 77.433594 273.507812 C 75.121094 271.195312 75.121094 268.886719 75.121094 266.574219 C 76.277344 264.261719 77.433594 261.949219 79.742188 261.949219 C 179.128906 239.988281 437.988281 236.519531 478.4375 263.105469 C 499.238281 273.507812 570.886719 313.964844 581.289062 319.746094 C 635.601562 328.992188 666.804688 335.925781 685.292969 342.863281 C 694.539062 346.328125 703.785156 349.796875 710.71875 356.730469 C 714.183594 360.199219 724.585938 370.601562 724.585938 442.269531 C 724.585938 444.578125 725.742188 445.734375 728.050781 449.203125 C 732.675781 453.828125 737.296875 458.449219 737.296875 466.542969 Z M 691.070312 370.601562 C 695.695312 374.070312 701.472656 376.382812 706.09375 376.382812 C 703.785156 367.136719 702.628906 365.980469 691.070312 360.199219 Z M 54.320312 350.953125 L 72.808594 346.328125 L 54.320312 346.328125 C 54.320312 347.484375 54.320312 347.484375 54.320312 348.640625 C 54.320312 348.640625 54.320312 349.796875 54.320312 350.953125 Z M 214.953125 466.542969 C 214.953125 438.800781 191.839844 415.683594 164.105469 415.683594 C 144.460938 415.683594 125.96875 428.398438 117.878906 445.734375 C 115.570312 451.515625 113.257812 458.449219 113.257812 465.386719 C 113.257812 465.386719 113.257812 466.542969 113.257812 466.542969 C 113.257812 494.28125 136.371094 517.398438 164.105469 517.398438 C 191.839844 517.398438 214.953125 494.28125 214.953125 466.542969 Z M 665.648438 466.542969 C 665.648438 438.800781 642.535156 415.683594 614.800781 415.683594 C 587.066406 415.683594 563.953125 438.800781 563.953125 466.542969 C 563.953125 494.28125 587.066406 517.398438 614.800781 517.398438 C 642.535156 517.398438 665.648438 494.28125 665.648438 466.542969 Z M 723.429688 465.386719 C 723.429688 463.074219 722.273438 461.917969 719.960938 459.605469 C 716.496094 456.136719 711.875 451.515625 711.875 443.421875 C 711.875 420.304688 710.71875 404.125 709.5625 391.410156 C 700.316406 390.253906 687.605469 386.785156 679.515625 378.695312 C 678.359375 377.539062 677.203125 375.226562 677.203125 374.070312 L 677.203125 355.578125 C 658.714844 349.796875 628.667969 342.863281 578.976562 334.769531 C 577.820312 334.769531 577.820312 334.769531 576.664062 333.613281 C 575.507812 333.613281 495.769531 287.378906 472.65625 275.820312 C 442.613281 256.171875 211.484375 252.703125 97.078125 273.507812 L 99.390625 275.820312 C 101.699219 278.132812 101.699219 282.757812 99.390625 285.066406 C 83.210938 301.25 67.03125 319.746094 58.941406 331.304688 L 94.765625 331.304688 C 97.078125 331.304688 100.546875 332.457031 101.699219 335.925781 C 102.855469 339.394531 101.699219 341.707031 100.546875 344.019531 L 88.988281 355.578125 C 87.832031 356.734375 86.679688 356.734375 85.523438 357.886719 L 52.007812 365.980469 C 48.542969 385.628906 43.917969 411.058594 43.917969 431.863281 C 43.917969 437.644531 43.917969 445.734375 46.230469 446.890625 C 46.230469 446.890625 47.386719 448.046875 48.542969 448.046875 C 53.164062 448.046875 63.566406 450.359375 86.679688 453.828125 L 100.546875 456.136719 C 101.699219 448.046875 104.011719 441.113281 107.480469 434.175781 C 119.035156 414.527344 140.992188 400.65625 164.105469 400.65625 C 199.929688 400.65625 228.820312 429.554688 228.820312 465.386719 C 228.820312 466.542969 228.820312 468.851562 228.820312 470.007812 L 550.085938 470.007812 C 550.085938 468.851562 550.085938 466.542969 550.085938 465.386719 C 550.085938 429.554688 578.976562 400.65625 614.800781 400.65625 C 650.625 400.65625 679.515625 429.554688 679.515625 465.386719 C 679.515625 466.542969 679.515625 468.851562 679.515625 470.007812 C 699.160156 471.164062 718.808594 467.695312 723.429688 465.386719 Z M 563.953125 340.550781 C 562.796875 344.019531 560.484375 346.328125 557.019531 346.328125 C 202.242188 334.769531 120.191406 323.210938 116.722656 323.210938 C 114.414062 323.210938 112.101562 320.898438 110.945312 318.589844 C 109.789062 316.277344 110.945312 312.808594 113.257812 311.652344 C 160.636719 275.820312 218.417969 275.820312 221.886719 275.820312 L 395.230469 275.820312 C 442.613281 275.820312 466.878906 287.378906 468.035156 288.535156 L 560.484375 334.769531 C 562.796875 334.769531 565.109375 338.238281 563.953125 340.550781 Z M 221.886719 288.535156 C 221.886719 288.535156 219.574219 288.535156 214.953125 288.535156 C 211.484375 297.78125 205.707031 309.339844 205.707031 316.277344 L 199.929688 316.277344 C 238.066406 318.589844 291.222656 322.054688 365.183594 325.523438 L 365.183594 288.535156 Z M 137.527344 311.652344 C 149.082031 312.808594 166.417969 313.964844 191.839844 316.277344 C 191.839844 309.339844 195.308594 298.9375 198.773438 292.003906 C 182.59375 293.160156 159.484375 298.9375 137.527344 311.652344 Z M 525.816406 331.304688 L 462.257812 298.9375 C 462.257812 298.9375 439.144531 288.535156 396.386719 288.535156 L 380.207031 288.535156 L 380.207031 325.523438 C 421.808594 327.835938 469.191406 328.992188 525.816406 331.304688 Z M 525.816406 331.304688 " fill-opacity="1" fill-rule="nonzero"/></g></svg>