<svg xmlns="http://www.w3.org/2000/svg" xmlns:xlink="http://www.w3.org/1999/xlink" width="1024" zoomAndPan="magnify" viewBox="0 0 768 767.999994" height="1024" preserveAspectRatio="xMidYMid meet" version="1.0"><defs><clipPath id="3ce19164a4"><path d="M 54.605469 152.0625 L 691.355469 152.0625 L 691.355469 632.8125 L 54.605469 632.8125 Z M 54.605469 152.0625 " clip-rule="nonzero"/></clipPath></defs><g clip-path="url(#3ce19164a4)"><path fill="#000000" d="M 317.015625 632.820312 C 316.632812 632.820312 316.25 632.800781 315.867188 632.757812 C 315.484375 632.710938 315.105469 632.648438 314.730469 632.5625 C 314.355469 632.472656 313.988281 632.367188 313.625 632.238281 C 313.261719 632.109375 312.90625 631.960938 312.5625 631.792969 C 312.214844 631.625 311.878906 631.433594 311.554688 631.226562 C 311.230469 631.019531 310.917969 630.796875 310.621094 630.554688 C 310.320312 630.3125 310.035156 630.054688 309.765625 629.777344 C 309.496094 629.503906 309.246094 629.214844 309.007812 628.910156 C 308.773438 628.605469 308.554688 628.292969 308.351562 627.964844 C 308.152344 627.632812 307.96875 627.296875 307.808594 626.945312 C 307.644531 626.597656 307.503906 626.242188 307.382812 625.875 C 307.261719 625.511719 307.160156 625.140625 307.082031 624.761719 C 307 624.386719 306.945312 624.007812 306.90625 623.625 C 306.871094 623.238281 306.855469 622.855469 306.863281 622.472656 C 306.871094 622.085938 306.902344 621.703125 306.953125 621.320312 C 307.003906 620.941406 307.078125 620.5625 307.171875 620.191406 L 355.578125 427.96875 L 289.59375 445.554688 C 277.714844 448.722656 265.648438 450.839844 253.402344 451.90625 C 241.152344 452.972656 228.902344 452.96875 216.65625 451.898438 L 177.578125 448.503906 C 157.828125 446.792969 138.269531 443.835938 118.894531 439.636719 C 99.519531 435.4375 80.488281 430.03125 61.800781 423.414062 L 61.417969 423.285156 C 60.472656 422.949219 59.59375 422.484375 58.785156 421.886719 C 57.976562 421.289062 57.273438 420.589844 56.675781 419.785156 C 56.074219 418.980469 55.605469 418.101562 55.261719 417.160156 C 54.921875 416.214844 54.726562 415.238281 54.675781 414.238281 C 54.625 413.234375 54.71875 412.246094 54.960938 411.269531 C 55.203125 410.296875 55.582031 409.378906 56.097656 408.515625 C 56.613281 407.652344 57.242188 406.882812 57.984375 406.207031 C 58.726562 405.53125 59.554688 404.980469 60.460938 404.546875 L 95.621094 387.828125 L 56.464844 331.636719 C 56.25 331.328125 56.054688 331.011719 55.875 330.679688 C 55.695312 330.347656 55.535156 330.011719 55.394531 329.660156 C 55.253906 329.3125 55.132812 328.957031 55.027344 328.597656 C 54.925781 328.234375 54.84375 327.867188 54.785156 327.5 C 54.722656 327.128906 54.683594 326.753906 54.664062 326.378906 C 54.640625 326.003906 54.644531 325.628906 54.664062 325.253906 C 54.6875 324.878906 54.730469 324.503906 54.792969 324.136719 C 54.855469 323.765625 54.9375 323.398438 55.042969 323.039062 C 55.148438 322.675781 55.269531 322.320312 55.414062 321.972656 C 55.558594 321.628906 55.71875 321.289062 55.898438 320.960938 C 56.082031 320.628906 56.277344 320.3125 56.496094 320.003906 C 56.710938 319.695312 56.945312 319.402344 57.191406 319.121094 C 57.441406 318.839844 57.707031 318.570312 57.984375 318.320312 C 58.261719 318.066406 58.554688 317.832031 58.859375 317.609375 C 59.164062 317.390625 59.480469 317.1875 59.804688 317.003906 C 60.132812 316.820312 60.46875 316.652344 60.816406 316.503906 L 93.945312 302.308594 C 94.785156 301.949219 95.660156 301.707031 96.566406 301.582031 C 97.46875 301.457031 98.375 301.457031 99.28125 301.574219 C 100.1875 301.695312 101.0625 301.933594 101.90625 302.292969 C 102.746094 302.648438 103.527344 303.109375 104.242188 303.679688 L 174.453125 359.214844 L 328.226562 312.71875 L 209.519531 185.355469 C 209.230469 185.042969 208.964844 184.71875 208.714844 184.375 C 208.46875 184.03125 208.242188 183.675781 208.039062 183.304688 C 207.839844 182.929688 207.660156 182.550781 207.503906 182.15625 C 207.347656 181.761719 207.21875 181.359375 207.113281 180.949219 C 207.007812 180.539062 206.929688 180.125 206.878906 179.703125 C 206.824219 179.285156 206.796875 178.863281 206.796875 178.441406 C 206.796875 178.015625 206.824219 177.59375 206.875 177.175781 C 206.929688 176.757812 207.007812 176.339844 207.113281 175.929688 C 207.214844 175.519531 207.34375 175.117188 207.5 174.726562 C 207.65625 174.332031 207.832031 173.949219 208.035156 173.578125 C 208.238281 173.207031 208.464844 172.847656 208.710938 172.503906 C 208.957031 172.160156 209.226562 171.835938 209.515625 171.523438 C 209.800781 171.214844 210.109375 170.921875 210.433594 170.652344 C 210.757812 170.378906 211.097656 170.128906 211.453125 169.902344 C 211.808594 169.671875 212.175781 169.464844 212.558594 169.28125 C 212.941406 169.097656 213.332031 168.941406 213.734375 168.808594 L 262.417969 152.578125 C 263.742188 152.136719 265.105469 151.976562 266.496094 152.09375 C 267.890625 152.214844 269.203125 152.605469 270.4375 153.269531 L 480.519531 266.167969 L 563.554688 243.363281 C 568.039062 242.132812 572.605469 241.496094 577.257812 241.457031 C 581.90625 241.414062 586.484375 241.96875 590.992188 243.117188 L 677.183594 265.117188 C 677.773438 265.261719 678.351562 265.4375 678.921875 265.640625 C 679.492188 265.84375 680.054688 266.074219 680.601562 266.332031 C 681.148438 266.589844 681.683594 266.871094 682.203125 267.183594 C 682.726562 267.492188 683.230469 267.828125 683.71875 268.183594 C 684.207031 268.542969 684.675781 268.925781 685.125 269.332031 C 685.578125 269.734375 686.007812 270.160156 686.417969 270.605469 C 686.828125 271.054688 687.214844 271.519531 687.578125 272.003906 C 687.941406 272.488281 688.28125 272.988281 688.597656 273.503906 C 688.910156 274.023438 689.203125 274.554688 689.464844 275.101562 C 689.730469 275.644531 689.964844 276.203125 690.175781 276.769531 C 690.382812 277.339844 690.566406 277.917969 690.71875 278.503906 C 690.871094 279.089844 690.996094 279.679688 691.089844 280.28125 C 691.183594 280.878906 691.25 281.480469 691.289062 282.085938 C 691.324219 282.6875 691.332031 283.292969 691.308594 283.898438 C 691.285156 284.503906 691.234375 285.109375 691.152344 285.707031 C 691.074219 286.308594 690.960938 286.902344 690.824219 287.492188 C 690.253906 289.976562 689.535156 292.414062 688.667969 294.808594 C 687.800781 297.199219 686.789062 299.53125 685.632812 301.800781 C 684.480469 304.070312 683.191406 306.261719 681.765625 308.375 C 680.34375 310.484375 678.796875 312.5 677.125 314.421875 C 675.453125 316.34375 673.671875 318.15625 671.777344 319.859375 C 669.882812 321.5625 667.894531 323.140625 665.808594 324.601562 C 663.71875 326.058594 661.550781 327.382812 659.300781 328.574219 C 657.050781 329.765625 654.734375 330.816406 652.355469 331.726562 L 525.976562 380.113281 L 383.335938 607.796875 C 382.726562 608.773438 381.972656 609.621094 381.074219 610.339844 C 380.175781 611.054688 379.183594 611.605469 378.101562 611.988281 L 320.382812 632.292969 C 319.289062 632.660156 318.167969 632.835938 317.015625 632.820312 Z M 379.464844 416.367188 L 331.476562 606.824219 L 368.015625 594.019531 L 510.585938 366.429688 C 511.785156 364.507812 513.441406 363.144531 515.558594 362.332031 L 645.105469 312.769531 C 646.652344 312.179688 648.15625 311.5 649.621094 310.734375 C 651.085938 309.964844 652.5 309.113281 653.863281 308.179688 C 655.230469 307.242188 656.535156 306.230469 657.777344 305.140625 C 659.023438 304.050781 660.199219 302.890625 661.304688 301.660156 C 662.414062 300.433594 663.445312 299.144531 664.398438 297.792969 C 665.351562 296.441406 666.226562 295.039062 667.015625 293.585938 C 667.800781 292.132812 668.503906 290.636719 669.113281 289.097656 C 669.726562 287.5625 670.246094 285.996094 670.671875 284.398438 L 585.964844 262.789062 C 583.167969 262.078125 580.328125 261.734375 577.441406 261.757812 C 574.554688 261.785156 571.71875 262.179688 568.933594 262.941406 L 481.980469 286.820312 C 480.722656 287.164062 479.449219 287.261719 478.15625 287.113281 C 476.863281 286.96875 475.640625 286.585938 474.496094 285.96875 L 264.679688 173.222656 L 235.144531 183.070312 L 354.195312 310.804688 C 354.484375 311.121094 354.757812 311.449219 355.007812 311.800781 C 355.257812 312.148438 355.484375 312.511719 355.691406 312.886719 C 355.894531 313.265625 356.074219 313.65625 356.230469 314.054688 C 356.382812 314.453125 356.515625 314.863281 356.617188 315.28125 C 356.71875 315.695312 356.796875 316.117188 356.847656 316.542969 C 356.898438 316.96875 356.917969 317.398438 356.914062 317.828125 C 356.910156 318.257812 356.878906 318.683594 356.820312 319.109375 C 356.761719 319.535156 356.675781 319.953125 356.566406 320.367188 C 356.453125 320.78125 356.316406 321.1875 356.152344 321.585938 C 355.988281 321.980469 355.800781 322.367188 355.589844 322.742188 C 355.378906 323.113281 355.140625 323.472656 354.886719 323.816406 C 354.628906 324.160156 354.347656 324.484375 354.050781 324.792969 C 353.75 325.101562 353.433594 325.386719 353.097656 325.65625 C 352.765625 325.921875 352.414062 326.167969 352.046875 326.394531 C 351.679688 326.617188 351.300781 326.816406 350.910156 326.992188 C 350.515625 327.164062 350.117188 327.316406 349.703125 327.441406 L 175.257812 380.183594 C 174.476562 380.421875 173.675781 380.5625 172.855469 380.605469 C 172.039062 380.644531 171.226562 380.589844 170.425781 380.4375 C 169.621094 380.285156 168.84375 380.039062 168.101562 379.695312 C 167.355469 379.355469 166.664062 378.929688 166.019531 378.421875 L 96.410156 323.351562 L 80.292969 330.261719 L 119.152344 386.050781 C 119.359375 386.351562 119.554688 386.664062 119.730469 386.988281 C 119.90625 387.308594 120.066406 387.640625 120.203125 387.980469 C 120.34375 388.320312 120.464844 388.667969 120.570312 389.019531 C 120.671875 389.371094 120.753906 389.730469 120.820312 390.089844 C 120.882812 390.453125 120.925781 390.816406 120.949219 391.183594 C 120.976562 391.550781 120.980469 391.917969 120.964844 392.285156 C 120.949219 392.652344 120.914062 393.015625 120.859375 393.378906 C 120.800781 393.742188 120.726562 394.101562 120.632812 394.457031 C 120.539062 394.8125 120.425781 395.164062 120.292969 395.503906 C 120.160156 395.847656 120.011719 396.183594 119.84375 396.511719 C 119.675781 396.835938 119.488281 397.152344 119.285156 397.460938 C 119.082031 397.765625 118.863281 398.058594 118.628906 398.34375 C 118.394531 398.625 118.144531 398.894531 117.878906 399.148438 C 117.617188 399.40625 117.339844 399.644531 117.050781 399.871094 C 116.757812 400.097656 116.457031 400.304688 116.144531 400.5 C 115.832031 400.691406 115.507812 400.867188 115.175781 401.023438 L 92.257812 411.902344 C 120.75 420.238281 149.785156 425.691406 179.363281 428.257812 L 218.4375 431.644531 C 229.511719 432.613281 240.585938 432.617188 251.660156 431.652344 C 262.734375 430.6875 273.640625 428.769531 284.378906 425.902344 L 361.300781 405.417969 L 372.105469 362.550781 C 372.273438 361.910156 372.5 361.292969 372.789062 360.695312 C 373.082031 360.101562 373.425781 359.539062 373.824219 359.011719 C 374.222656 358.484375 374.671875 358 375.164062 357.558594 C 375.660156 357.117188 376.191406 356.730469 376.761719 356.394531 C 377.332031 356.058594 377.925781 355.78125 378.550781 355.558594 C 379.175781 355.339844 379.816406 355.183594 380.472656 355.089844 C 381.125 354.996094 381.785156 354.964844 382.445312 355 C 383.105469 355.03125 383.757812 355.128906 384.398438 355.292969 C 385.042969 355.453125 385.660156 355.675781 386.261719 355.960938 C 386.859375 356.242188 387.425781 356.582031 387.957031 356.972656 C 388.488281 357.367188 388.976562 357.808594 389.421875 358.296875 C 389.867188 358.789062 390.261719 359.316406 390.605469 359.882812 C 390.949219 360.449219 391.234375 361.042969 391.460938 361.664062 C 391.6875 362.285156 391.851562 362.925781 391.953125 363.578125 C 392.054688 364.234375 392.089844 364.890625 392.0625 365.550781 C 392.035156 366.214844 391.945312 366.867188 391.789062 367.507812 L 379.578125 415.992188 Z M 379.464844 416.367188 " fill-opacity="1" fill-rule="nonzero"/></g><path fill="#000000" d="M 120.253906 511.792969 C 119.582031 511.792969 118.914062 511.726562 118.253906 511.59375 C 117.597656 511.460938 116.957031 511.265625 116.335938 511.007812 C 115.714844 510.746094 115.125 510.429688 114.570312 510.054688 C 114.011719 509.675781 113.496094 509.25 113.023438 508.769531 C 112.554688 508.292969 112.132812 507.773438 111.765625 507.210938 C 111.394531 506.648438 111.085938 506.054688 110.835938 505.429688 C 110.582031 504.804688 110.394531 504.164062 110.273438 503.503906 C 110.148438 502.84375 110.09375 502.175781 110.101562 501.503906 L 111.050781 429.621094 C 111.058594 428.957031 111.132812 428.296875 111.273438 427.644531 C 111.410156 426.992188 111.613281 426.359375 111.875 425.75 C 112.136719 425.136719 112.457031 424.554688 112.835938 424.003906 C 113.214844 423.457031 113.640625 422.949219 114.121094 422.484375 C 114.597656 422.019531 115.113281 421.605469 115.675781 421.242188 C 116.234375 420.878906 116.824219 420.574219 117.441406 420.328125 C 118.0625 420.078125 118.699219 419.894531 119.355469 419.773438 C 120.007812 419.652344 120.671875 419.597656 121.335938 419.605469 C 122.003906 419.613281 122.664062 419.6875 123.316406 419.828125 C 123.964844 419.964844 124.597656 420.167969 125.210938 420.429688 C 125.824219 420.691406 126.40625 421.011719 126.953125 421.390625 C 127.503906 421.769531 128.011719 422.195312 128.476562 422.671875 C 128.941406 423.152344 129.355469 423.667969 129.71875 424.226562 C 130.082031 424.789062 130.386719 425.375 130.632812 425.996094 C 130.878906 426.613281 131.0625 427.253906 131.183594 427.90625 C 131.304688 428.5625 131.363281 429.222656 131.355469 429.890625 L 130.5625 489.988281 L 144.085938 488.152344 L 180.21875 433.675781 C 180.585938 433.113281 181 432.59375 181.46875 432.113281 C 181.9375 431.632812 182.449219 431.203125 183.003906 430.824219 C 183.558594 430.445312 184.140625 430.125 184.761719 429.859375 C 185.378906 429.597656 186.015625 429.398438 186.671875 429.261719 C 187.328125 429.125 187.992188 429.054688 188.664062 429.050781 C 189.332031 429.046875 190 429.105469 190.65625 429.234375 C 191.316406 429.359375 191.957031 429.550781 192.578125 429.804688 C 193.199219 430.058594 193.789062 430.371094 194.347656 430.742188 C 194.90625 431.113281 195.421875 431.535156 195.898438 432.011719 C 196.375 432.484375 196.796875 433 197.171875 433.554688 C 197.542969 434.113281 197.859375 434.703125 198.117188 435.324219 C 198.371094 435.941406 198.566406 436.582031 198.695312 437.242188 C 198.824219 437.898438 198.886719 438.5625 198.886719 439.234375 C 198.882812 439.90625 198.816406 440.570312 198.683594 441.226562 C 198.546875 441.882812 198.351562 442.523438 198.089844 443.140625 C 197.832031 443.757812 197.511719 444.34375 197.136719 444.902344 L 158.464844 503.199219 C 157.660156 504.417969 156.636719 505.410156 155.398438 506.1875 C 154.164062 506.960938 152.820312 507.449219 151.375 507.644531 L 121.644531 511.707031 C 121.183594 511.765625 120.71875 511.792969 120.253906 511.792969 Z M 120.253906 511.792969 " fill-opacity="1" fill-rule="nonzero"/><path fill="#000000" d="M 346.761719 327.902344 C 346.160156 327.902344 345.5625 327.847656 344.96875 327.742188 C 344.375 327.632812 343.796875 327.476562 343.230469 327.265625 C 342.667969 327.054688 342.125 326.796875 341.605469 326.488281 C 341.089844 326.183594 340.601562 325.832031 340.144531 325.4375 C 339.6875 325.046875 339.269531 324.613281 338.890625 324.148438 C 338.511719 323.679688 338.175781 323.179688 337.886719 322.652344 C 337.59375 322.125 337.351562 321.578125 337.160156 321.003906 C 336.964844 320.433594 336.824219 319.851562 336.734375 319.253906 C 336.648438 318.660156 336.609375 318.0625 336.628906 317.457031 C 336.644531 316.855469 336.714844 316.261719 336.839844 315.671875 C 336.964844 315.082031 337.136719 314.507812 337.363281 313.949219 C 337.589844 313.390625 337.863281 312.855469 338.183594 312.34375 C 338.503906 311.835938 338.867188 311.359375 339.273438 310.914062 C 339.679688 310.46875 340.121094 310.0625 340.601562 309.695312 C 341.078125 309.328125 341.585938 309.007812 342.121094 308.730469 C 342.65625 308.453125 343.210938 308.226562 343.789062 308.050781 L 476.308594 267.328125 C 476.949219 267.117188 477.605469 266.96875 478.277344 266.890625 C 478.945312 266.808594 479.617188 266.796875 480.292969 266.847656 C 480.964844 266.902344 481.625 267.019531 482.277344 267.207031 C 482.925781 267.390625 483.550781 267.640625 484.148438 267.949219 C 484.75 268.261719 485.3125 268.625 485.839844 269.050781 C 486.367188 269.472656 486.847656 269.941406 487.28125 270.460938 C 487.714844 270.980469 488.089844 271.535156 488.414062 272.128906 C 488.734375 272.722656 488.996094 273.34375 489.191406 273.988281 C 489.390625 274.632812 489.523438 275.292969 489.589844 275.964844 C 489.65625 276.636719 489.65625 277.308594 489.589844 277.980469 C 489.523438 278.652344 489.390625 279.3125 489.191406 279.957031 C 488.992188 280.601562 488.730469 281.222656 488.410156 281.816406 C 488.085938 282.410156 487.707031 282.964844 487.277344 283.480469 C 486.84375 284 486.363281 284.46875 485.835938 284.890625 C 485.308594 285.316406 484.742188 285.679688 484.144531 285.988281 C 483.542969 286.300781 482.917969 286.546875 482.269531 286.730469 L 349.777344 327.425781 C 348.796875 327.738281 347.789062 327.898438 346.761719 327.902344 Z M 346.761719 327.902344 " fill-opacity="1" fill-rule="nonzero"/><path fill="#000000" d="M 417.757812 358.308594 C 417.15625 358.308594 416.558594 358.257812 415.96875 358.152344 C 415.375 358.046875 414.796875 357.886719 414.234375 357.679688 C 413.671875 357.472656 413.128906 357.214844 412.609375 356.914062 C 412.09375 356.609375 411.605469 356.261719 411.148438 355.871094 C 410.691406 355.480469 410.273438 355.050781 409.890625 354.585938 C 409.511719 354.121094 409.175781 353.625 408.882812 353.101562 C 408.589844 352.578125 408.34375 352.03125 408.148438 351.460938 C 407.953125 350.894531 407.808594 350.3125 407.71875 349.71875 C 407.625 349.125 407.585938 348.527344 407.597656 347.925781 C 407.613281 347.328125 407.679688 346.730469 407.796875 346.140625 C 407.917969 345.554688 408.085938 344.980469 408.308594 344.421875 C 408.53125 343.863281 408.796875 343.328125 409.113281 342.816406 C 409.429688 342.304688 409.789062 341.824219 410.191406 341.378906 C 410.589844 340.929688 411.027344 340.523438 411.503906 340.152344 C 411.976562 339.78125 412.480469 339.457031 413.011719 339.175781 C 413.542969 338.898438 414.09375 338.664062 414.667969 338.484375 L 431.570312 333.074219 C 432.203125 332.871094 432.851562 332.730469 433.515625 332.65625 C 434.175781 332.582031 434.839844 332.570312 435.503906 332.625 C 436.167969 332.679688 436.824219 332.800781 437.464844 332.984375 C 438.105469 333.167969 438.722656 333.410156 439.3125 333.714844 C 439.90625 334.023438 440.464844 334.382812 440.984375 334.796875 C 441.507812 335.210938 441.984375 335.671875 442.414062 336.183594 C 442.84375 336.691406 443.222656 337.238281 443.546875 337.820312 C 443.867188 338.402344 444.132812 339.011719 444.335938 339.648438 C 444.539062 340.28125 444.675781 340.929688 444.753906 341.59375 C 444.828125 342.253906 444.839844 342.917969 444.785156 343.582031 C 444.730469 344.246094 444.609375 344.898438 444.425781 345.539062 C 444.242188 346.183594 443.996094 346.796875 443.691406 347.390625 C 443.386719 347.984375 443.027344 348.542969 442.613281 349.0625 C 442.195312 349.585938 441.734375 350.0625 441.226562 350.492188 C 440.71875 350.921875 440.171875 351.300781 439.589844 351.621094 C 439.003906 351.945312 438.398438 352.210938 437.761719 352.414062 L 420.839844 357.820312 C 419.835938 358.144531 418.808594 358.304688 417.757812 358.308594 Z M 417.757812 358.308594 " fill-opacity="1" fill-rule="nonzero"/><path fill="#000000" d="M 479.289062 340.863281 C 478.6875 340.863281 478.089844 340.808594 477.5 340.703125 C 476.90625 340.597656 476.332031 340.441406 475.765625 340.234375 C 475.203125 340.027344 474.660156 339.769531 474.144531 339.464844 C 473.625 339.160156 473.136719 338.816406 472.679688 338.425781 C 472.222656 338.035156 471.804688 337.605469 471.425781 337.140625 C 471.042969 336.675781 470.707031 336.179688 470.414062 335.65625 C 470.121094 335.128906 469.878906 334.585938 469.683594 334.015625 C 469.484375 333.449219 469.34375 332.867188 469.25 332.273438 C 469.15625 331.679688 469.117188 331.082031 469.132812 330.480469 C 469.144531 329.878906 469.210938 329.285156 469.332031 328.695312 C 469.449219 328.105469 469.621094 327.535156 469.839844 326.972656 C 470.0625 326.414062 470.332031 325.878906 470.648438 325.371094 C 470.964844 324.859375 471.320312 324.378906 471.722656 323.933594 C 472.125 323.484375 472.5625 323.074219 473.035156 322.707031 C 473.507812 322.335938 474.011719 322.011719 474.542969 321.730469 C 475.074219 321.449219 475.628906 321.21875 476.199219 321.035156 L 493.101562 315.628906 C 493.738281 315.425781 494.386719 315.285156 495.046875 315.210938 C 495.707031 315.136719 496.371094 315.128906 497.035156 315.183594 C 497.699219 315.238281 498.351562 315.359375 498.992188 315.542969 C 499.632812 315.730469 500.246094 315.972656 500.839844 316.277344 C 501.429688 316.585938 501.988281 316.945312 502.507812 317.359375 C 503.03125 317.773438 503.503906 318.238281 503.933594 318.746094 C 504.367188 319.253906 504.742188 319.800781 505.066406 320.382812 C 505.386719 320.964844 505.648438 321.574219 505.851562 322.207031 C 506.054688 322.84375 506.195312 323.492188 506.269531 324.152344 C 506.347656 324.8125 506.355469 325.476562 506.300781 326.140625 C 506.246094 326.804688 506.125 327.457031 505.941406 328.097656 C 505.757812 328.738281 505.515625 329.355469 505.210938 329.945312 C 504.90625 330.539062 504.546875 331.09375 504.132812 331.617188 C 503.71875 332.136719 503.257812 332.613281 502.746094 333.046875 C 502.238281 333.476562 501.695312 333.851562 501.113281 334.175781 C 500.53125 334.5 499.921875 334.761719 499.285156 334.964844 L 482.386719 340.375 C 481.378906 340.699219 480.347656 340.859375 479.289062 340.863281 Z M 479.289062 340.863281 " fill-opacity="1" fill-rule="nonzero"/><path fill="#000000" d="M 537.371094 324.277344 C 536.769531 324.277344 536.175781 324.226562 535.582031 324.117188 C 534.992188 324.011719 534.414062 323.855469 533.851562 323.648438 C 533.289062 323.4375 532.75 323.183594 532.234375 322.878906 C 531.714844 322.574219 531.230469 322.226562 530.773438 321.835938 C 530.316406 321.445312 529.898438 321.019531 529.519531 320.554688 C 529.140625 320.089844 528.804688 319.597656 528.511719 319.070312 C 528.21875 318.546875 527.972656 318 527.777344 317.433594 C 527.582031 316.867188 527.4375 316.285156 527.347656 315.695312 C 527.253906 315.101562 527.214844 314.503906 527.226562 313.90625 C 527.242188 313.304688 527.304688 312.710938 527.425781 312.121094 C 527.542969 311.535156 527.710938 310.960938 527.933594 310.402344 C 528.152344 309.84375 528.421875 309.308594 528.734375 308.796875 C 529.050781 308.289062 529.410156 307.808594 529.808594 307.359375 C 530.207031 306.914062 530.644531 306.503906 531.117188 306.132812 C 531.589844 305.765625 532.089844 305.4375 532.621094 305.15625 C 533.152344 304.875 533.703125 304.644531 534.273438 304.460938 L 551.175781 299.050781 C 551.8125 298.832031 552.46875 298.679688 553.136719 298.589844 C 553.808594 298.503906 554.476562 298.480469 555.152344 298.527344 C 555.824219 298.574219 556.488281 298.683594 557.140625 298.863281 C 557.789062 299.039062 558.417969 299.28125 559.019531 299.582031 C 559.625 299.886719 560.191406 300.246094 560.722656 300.664062 C 561.253906 301.078125 561.738281 301.542969 562.179688 302.054688 C 562.617188 302.570312 563 303.121094 563.332031 303.710938 C 563.660156 304.300781 563.925781 304.914062 564.132812 305.558594 C 564.339844 306.203125 564.480469 306.859375 564.554688 307.53125 C 564.628906 308.199219 564.636719 308.871094 564.578125 309.542969 C 564.519531 310.21875 564.394531 310.878906 564.203125 311.523438 C 564.011719 312.171875 563.757812 312.792969 563.445312 313.390625 C 563.128906 313.988281 562.757812 314.550781 562.332031 315.070312 C 561.90625 315.59375 561.429688 316.070312 560.910156 316.5 C 560.386719 316.929688 559.828125 317.300781 559.234375 317.617188 C 558.636719 317.933594 558.015625 318.191406 557.367188 318.382812 L 540.480469 323.820312 C 539.46875 324.136719 538.429688 324.289062 537.371094 324.277344 Z M 537.371094 324.277344 " fill-opacity="1" fill-rule="nonzero"/><path fill="#000000" d="M 596.253906 310.972656 C 595.640625 310.972656 595.03125 310.917969 594.425781 310.804688 C 593.820312 310.695312 593.230469 310.53125 592.652344 310.3125 C 592.078125 310.09375 591.527344 309.824219 591 309.503906 C 590.472656 309.1875 589.980469 308.824219 589.519531 308.414062 C 589.058594 308.007812 588.640625 307.558594 588.261719 307.074219 C 587.882812 306.589844 587.550781 306.074219 587.265625 305.53125 C 586.980469 304.984375 586.746094 304.417969 586.5625 303.832031 C 586.378906 303.242188 586.253906 302.644531 586.179688 302.035156 C 586.105469 301.421875 586.085938 300.808594 586.125 300.195312 C 586.164062 299.582031 586.257812 298.976562 586.402344 298.378906 C 586.550781 297.78125 586.753906 297.203125 587.007812 296.640625 C 587.257812 296.082031 587.5625 295.546875 587.910156 295.039062 C 588.261719 294.535156 588.65625 294.066406 589.089844 293.628906 C 589.527344 293.195312 590 292.804688 590.503906 292.457031 C 591.011719 292.105469 591.546875 291.808594 592.109375 291.554688 C 592.671875 291.304688 593.25 291.105469 593.847656 290.960938 L 594.574219 290.777344 C 596.550781 290.292969 598.496094 289.707031 600.410156 289.015625 C 602.324219 288.328125 604.195312 287.539062 606.027344 286.648438 C 607.859375 285.761719 609.636719 284.777344 611.363281 283.699219 C 613.089844 282.625 614.753906 281.457031 616.359375 280.203125 C 617.960938 278.953125 619.492188 277.617188 620.953125 276.203125 C 622.417969 274.785156 623.800781 273.296875 625.101562 271.734375 C 626.40625 270.171875 627.625 268.542969 628.753906 266.851562 C 629.886719 265.160156 630.925781 263.414062 631.871094 261.613281 C 632.183594 261.023438 632.546875 260.472656 632.964844 259.953125 C 633.386719 259.433594 633.851562 258.964844 634.363281 258.535156 C 634.875 258.109375 635.421875 257.738281 636.007812 257.417969 C 636.59375 257.101562 637.203125 256.84375 637.839844 256.644531 C 638.476562 256.445312 639.125 256.3125 639.785156 256.242188 C 640.449219 256.171875 641.113281 256.167969 641.773438 256.226562 C 642.4375 256.289062 643.089844 256.410156 643.726562 256.601562 C 644.367188 256.789062 644.980469 257.035156 645.570312 257.347656 C 646.160156 257.65625 646.714844 258.019531 647.234375 258.4375 C 647.753906 258.855469 648.226562 259.320312 648.652344 259.832031 C 649.078125 260.34375 649.453125 260.890625 649.769531 261.476562 C 650.089844 262.0625 650.347656 262.671875 650.546875 263.308594 C 650.746094 263.941406 650.882812 264.589844 650.953125 265.253906 C 651.023438 265.917969 651.027344 266.578125 650.96875 267.242188 C 650.910156 267.90625 650.785156 268.558594 650.597656 269.195312 C 650.410156 269.835938 650.164062 270.449219 649.855469 271.039062 C 648.574219 273.476562 647.171875 275.839844 645.640625 278.125 C 644.109375 280.414062 642.464844 282.613281 640.703125 284.726562 C 638.9375 286.839844 637.070312 288.855469 635.09375 290.769531 C 633.117188 292.6875 631.046875 294.492188 628.878906 296.1875 C 626.710938 297.882812 624.460938 299.460938 622.125 300.917969 C 619.792969 302.375 617.386719 303.707031 614.910156 304.910156 C 612.4375 306.113281 609.902344 307.179688 607.316406 308.113281 C 604.726562 309.050781 602.097656 309.84375 599.425781 310.5 L 598.699219 310.683594 C 597.894531 310.878906 597.082031 310.972656 596.253906 310.972656 Z M 596.253906 310.972656 " fill-opacity="1" fill-rule="nonzero"/></svg>