<svg xmlns="http://www.w3.org/2000/svg" xmlns:xlink="http://www.w3.org/1999/xlink" width="1024" zoomAndPan="magnify" viewBox="0 0 768 767.999994" height="1024" preserveAspectRatio="xMidYMid meet" version="1.0"><defs><clipPath id="e297085c2d"><path d="M 31.171875 91 L 733 91 L 733 680.136719 L 31.171875 680.136719 Z M 31.171875 91 " clip-rule="nonzero"/></clipPath></defs><g clip-path="url(#e297085c2d)"><path fill="#000000" d="M 629.957031 382.335938 L 629.957031 664.648438 C 629.957031 665.667969 629.855469 666.679688 629.65625 667.683594 C 629.457031 668.683594 629.160156 669.65625 628.769531 670.601562 C 628.378906 671.542969 627.898438 672.441406 627.332031 673.289062 C 626.761719 674.136719 626.117188 674.925781 625.394531 675.644531 C 624.671875 676.367188 623.886719 677.011719 623.039062 677.582031 C 622.1875 678.148438 621.292969 678.628906 620.347656 679.019531 C 619.402344 679.410156 618.429688 679.707031 617.429688 679.90625 C 616.425781 680.105469 615.414062 680.207031 614.394531 680.207031 L 451.148438 680.207031 C 450.128906 680.207031 449.117188 680.105469 448.113281 679.90625 C 447.113281 679.707031 446.136719 679.410156 445.195312 679.019531 C 444.25 678.628906 443.355469 678.148438 442.503906 677.582031 C 441.65625 677.011719 440.871094 676.367188 440.148438 675.644531 C 439.425781 674.925781 438.78125 674.136719 438.210938 673.289062 C 437.644531 672.441406 437.164062 671.542969 436.773438 670.601562 C 436.382812 669.65625 436.085938 668.683594 435.886719 667.683594 C 435.6875 666.679688 435.585938 665.667969 435.585938 664.648438 L 435.585938 521.210938 L 311.964844 521.210938 L 311.964844 664.632812 C 311.964844 665.65625 311.867188 666.664062 311.667969 667.664062 C 311.46875 668.667969 311.175781 669.636719 310.785156 670.582031 C 310.394531 671.523438 309.917969 672.417969 309.351562 673.269531 C 308.785156 674.117188 308.140625 674.902344 307.421875 675.625 C 306.703125 676.347656 305.917969 676.996094 305.070312 677.5625 C 304.222656 678.132812 303.328125 678.613281 302.386719 679.007812 C 301.445312 679.398438 300.472656 679.695312 299.472656 679.898438 C 298.472656 680.101562 297.460938 680.203125 296.441406 680.207031 L 133.140625 680.207031 C 132.121094 680.207031 131.109375 680.105469 130.105469 679.90625 C 129.105469 679.707031 128.132812 679.410156 127.1875 679.019531 C 126.242188 678.628906 125.347656 678.148438 124.496094 677.582031 C 123.648438 677.011719 122.863281 676.367188 122.140625 675.644531 C 121.417969 674.925781 120.773438 674.136719 120.203125 673.289062 C 119.636719 672.441406 119.15625 671.542969 118.765625 670.601562 C 118.375 669.65625 118.078125 668.683594 117.878906 667.683594 C 117.679688 666.679688 117.578125 665.667969 117.578125 664.648438 L 117.578125 382.335938 C 117.578125 381.582031 117.652344 380.835938 117.796875 380.09375 C 117.945312 379.351562 118.164062 378.632812 118.453125 377.9375 C 118.742188 377.238281 119.097656 376.574219 119.515625 375.945312 C 119.9375 375.320312 120.414062 374.738281 120.945312 374.203125 C 121.480469 373.671875 122.0625 373.195312 122.691406 372.773438 C 123.320312 372.355469 123.980469 372 124.679688 371.710938 C 125.378906 371.421875 126.097656 371.203125 126.839844 371.054688 C 127.578125 370.910156 128.328125 370.835938 129.082031 370.835938 C 129.839844 370.835938 130.585938 370.910156 131.328125 371.054688 C 132.066406 371.203125 132.789062 371.421875 133.484375 371.710938 C 134.183594 372 134.847656 372.355469 135.472656 372.773438 C 136.101562 373.195312 136.683594 373.671875 137.21875 374.203125 C 137.753906 374.738281 138.230469 375.320312 138.648438 375.945312 C 139.070312 376.574219 139.421875 377.238281 139.710938 377.9375 C 140 378.632812 140.21875 379.351562 140.367188 380.09375 C 140.515625 380.835938 140.589844 381.582031 140.589844 382.335938 L 140.589844 657.191406 L 288.953125 657.191406 L 288.953125 513.769531 C 288.953125 512.746094 289.054688 511.734375 289.253906 510.734375 C 289.457031 509.730469 289.75 508.757812 290.140625 507.816406 C 290.535156 506.871094 291.011719 505.976562 291.582031 505.125 C 292.148438 504.277344 292.792969 503.492188 293.515625 502.769531 C 294.238281 502.046875 295.023438 501.402344 295.875 500.835938 C 296.722656 500.265625 297.621094 499.789062 298.5625 499.398438 C 299.507812 499.003906 300.480469 498.710938 301.484375 498.507812 C 302.484375 498.308594 303.496094 498.210938 304.519531 498.207031 L 443.085938 498.207031 C 444.109375 498.210938 445.121094 498.308594 446.121094 498.507812 C 447.125 498.710938 448.097656 499.003906 449.039062 499.398438 C 449.984375 499.789062 450.882812 500.265625 451.730469 500.835938 C 452.578125 501.402344 453.367188 502.046875 454.089844 502.769531 C 454.8125 503.492188 455.457031 504.277344 456.023438 505.125 C 456.589844 505.976562 457.070312 506.871094 457.460938 507.816406 C 457.855469 508.757812 458.148438 509.730469 458.351562 510.734375 C 458.550781 511.734375 458.648438 512.746094 458.652344 513.769531 L 458.652344 657.191406 L 607.015625 657.191406 L 607.015625 382.335938 C 607.015625 381.582031 607.089844 380.835938 607.238281 380.09375 C 607.386719 379.351562 607.605469 378.632812 607.894531 377.9375 C 608.183594 377.238281 608.535156 376.574219 608.957031 375.945312 C 609.375 375.320312 609.851562 374.738281 610.386719 374.203125 C 610.921875 373.671875 611.503906 373.195312 612.128906 372.773438 C 612.757812 372.355469 613.421875 372 614.121094 371.710938 C 614.816406 371.421875 615.535156 371.203125 616.277344 371.054688 C 617.019531 370.910156 617.765625 370.835938 618.523438 370.835938 C 619.277344 370.835938 620.027344 370.910156 620.765625 371.054688 C 621.507812 371.203125 622.226562 371.421875 622.925781 371.710938 C 623.625 372 624.285156 372.355469 624.914062 372.773438 C 625.542969 373.195312 626.125 373.671875 626.65625 374.203125 C 627.191406 374.738281 627.667969 375.320312 628.089844 375.945312 C 628.507812 376.574219 628.863281 377.238281 629.152344 377.9375 C 629.441406 378.632812 629.660156 379.351562 629.808594 380.09375 C 629.953125 380.835938 630.027344 381.582031 630.027344 382.335938 Z M 727.542969 375.941406 L 391.800781 95.519531 C 391.109375 94.941406 390.367188 94.425781 389.582031 93.972656 C 388.800781 93.523438 387.980469 93.144531 387.128906 92.835938 C 386.28125 92.527344 385.410156 92.292969 384.515625 92.136719 C 383.625 91.980469 382.726562 91.902344 381.824219 91.902344 C 380.917969 91.902344 380.019531 91.980469 379.128906 92.136719 C 378.238281 92.292969 377.367188 92.527344 376.515625 92.835938 C 375.664062 93.144531 374.847656 93.523438 374.0625 93.972656 C 373.277344 94.425781 372.539062 94.941406 371.84375 95.519531 L 36.101562 375.941406 C 35.523438 376.425781 34.996094 376.964844 34.519531 377.550781 C 34.046875 378.140625 33.632812 378.769531 33.285156 379.4375 C 32.933594 380.105469 32.652344 380.804688 32.4375 381.527344 C 32.226562 382.253906 32.085938 382.992188 32.015625 383.742188 C 31.949219 384.496094 31.957031 385.246094 32.035156 385.996094 C 32.117188 386.75 32.269531 387.484375 32.496094 388.207031 C 32.722656 388.925781 33.015625 389.617188 33.375 390.28125 C 33.738281 390.945312 34.160156 391.566406 34.644531 392.144531 C 35.128906 392.726562 35.667969 393.253906 36.253906 393.726562 C 36.84375 394.199219 37.472656 394.613281 38.140625 394.964844 C 38.8125 395.3125 39.507812 395.59375 40.234375 395.808594 C 40.957031 396.023438 41.695312 396.160156 42.449219 396.230469 C 43.203125 396.296875 43.953125 396.289062 44.703125 396.210938 C 45.457031 396.128906 46.191406 395.976562 46.914062 395.75 C 47.632812 395.527344 48.328125 395.230469 48.988281 394.871094 C 49.652344 394.507812 50.273438 394.085938 50.855469 393.601562 L 381.824219 117.152344 L 712.859375 393.53125 C 713.425781 394.097656 714.042969 394.597656 714.710938 395.035156 C 715.382812 395.472656 716.089844 395.835938 716.832031 396.125 C 717.578125 396.414062 718.347656 396.625 719.136719 396.753906 C 719.921875 396.886719 720.71875 396.933594 721.515625 396.898438 C 722.316406 396.859375 723.101562 396.742188 723.875 396.542969 C 724.648438 396.34375 725.394531 396.066406 726.113281 395.710938 C 726.828125 395.359375 727.5 394.933594 728.128906 394.4375 C 728.753906 393.945312 729.324219 393.390625 729.839844 392.777344 C 730.351562 392.160156 730.792969 391.503906 731.167969 390.796875 C 731.542969 390.089844 731.839844 389.351562 732.0625 388.585938 C 732.28125 387.816406 732.421875 387.035156 732.480469 386.238281 C 732.539062 385.441406 732.511719 384.644531 732.40625 383.851562 C 732.296875 383.0625 732.109375 382.289062 731.839844 381.535156 C 731.570312 380.785156 731.226562 380.066406 730.808594 379.386719 C 730.390625 378.703125 729.90625 378.074219 729.355469 377.496094 C 728.804688 376.914062 728.203125 376.398438 727.542969 375.941406 Z M 727.542969 375.941406 " fill-opacity="1" fill-rule="nonzero"/></g></svg>