<svg xmlns="http://www.w3.org/2000/svg" xmlns:xlink="http://www.w3.org/1999/xlink" width="1024" zoomAndPan="magnify" viewBox="0 0 768 767.999994" height="1024" preserveAspectRatio="xMidYMid meet" version="1.0"><defs><clipPath id="0b7d2506a0"><path d="M 23 165.878906 L 735 165.878906 L 735 608.378906 L 23 608.378906 Z M 23 165.878906 " clip-rule="nonzero"/></clipPath></defs><g clip-path="url(#0b7d2506a0)"><path fill="#000000" d="M 733.675781 445.503906 C 721.320312 423.058594 706.796875 411.195312 681.65625 405.101562 C 695.164062 401.132812 705.082031 403.226562 717.71875 411.179688 C 721.851562 413.792969 727.328125 412.539062 729.925781 408.40625 C 732.523438 404.277344 731.285156 398.800781 727.152344 396.203125 C 707.414062 383.796875 690.765625 382.097656 667.765625 391.277344 C 671 370.101562 664.015625 355.273438 645.183594 339.78125 C 641.402344 336.667969 635.824219 337.226562 632.722656 340.992188 C 629.609375 344.769531 630.15625 350.34375 633.933594 353.457031 C 647.070312 364.257812 652.132812 373.140625 650.570312 386.789062 C 633.578125 368.082031 603.1875 357.632812 580.101562 360.925781 C 575.257812 361.617188 571.894531 366.105469 572.585938 370.945312 C 573.28125 375.785156 577.769531 379.148438 582.609375 378.453125 C 599.378906 376.050781 622.554688 384.015625 635.660156 396.855469 C 612.101562 391.054688 582.742188 399.480469 566.386719 415.222656 C 562.859375 418.617188 562.753906 424.226562 566.152344 427.738281 C 567.890625 429.539062 570.210938 430.453125 572.527344 430.453125 C 574.742188 430.453125 576.957031 429.625 578.667969 427.972656 C 592.867188 414.296875 622.390625 407.921875 639.441406 417.082031 C 613.105469 478.9375 613.519531 515.53125 614.167969 570.714844 C 614.242188 577.074219 614.316406 583.613281 614.359375 590.445312 L 554.726562 590.445312 L 554.726562 224.703125 L 565.175781 224.703125 C 570.0625 224.703125 574.03125 220.734375 574.03125 215.851562 C 574.03125 210.964844 570.0625 206.996094 565.175781 206.996094 L 475.5625 206.996094 L 475.5625 183.65625 L 494.914062 183.65625 C 499.796875 183.65625 503.769531 179.683594 503.769531 174.800781 C 503.769531 169.917969 499.796875 165.949219 494.914062 165.949219 L 263.132812 165.949219 C 258.246094 165.949219 254.277344 169.917969 254.277344 174.800781 C 254.277344 179.683594 258.246094 183.65625 263.132812 183.65625 L 282.484375 183.65625 L 282.484375 206.996094 L 192.867188 206.996094 C 187.984375 206.996094 184.011719 210.964844 184.011719 215.851562 C 184.011719 220.734375 187.984375 224.703125 192.867188 224.703125 L 203.320312 224.703125 L 203.320312 590.457031 L 143.683594 590.457031 C 143.730469 583.628906 143.800781 577.105469 143.875 570.730469 C 144.527344 515.5625 144.9375 478.953125 118.605469 417.097656 C 135.65625 407.949219 165.175781 414.308594 179.378906 427.988281 C 181.089844 429.640625 183.304688 430.464844 185.519531 430.464844 C 187.835938 430.464844 190.152344 429.550781 191.894531 427.75 C 195.289062 424.226562 195.1875 418.617188 191.660156 415.238281 C 175.289062 399.480469 145.929688 391.070312 122.371094 396.867188 C 135.476562 384.03125 158.652344 376.0625 175.4375 378.46875 C 180.292969 379.164062 184.765625 375.796875 185.457031 370.957031 C 186.152344 366.117188 182.785156 361.632812 177.945312 360.941406 C 154.859375 357.632812 124.464844 368.097656 107.476562 386.792969 C 105.910156 373.140625 110.972656 364.257812 124.109375 353.457031 C 127.890625 350.359375 128.4375 344.769531 125.320312 340.992188 C 122.222656 337.214844 116.640625 336.667969 112.863281 339.78125 C 94.027344 355.273438 87.046875 370.089844 90.277344 391.277344 C 67.28125 382.097656 50.613281 383.78125 30.894531 396.191406 C 26.761719 398.785156 25.507812 404.261719 28.117188 408.394531 C 30.71875 412.539062 36.195312 413.777344 40.328125 411.167969 C 52.976562 403.214844 62.882812 401.132812 76.386719 405.085938 C 51.25 411.167969 36.726562 423.042969 24.371094 445.488281 C 22.007812 449.765625 23.574219 455.152344 27.851562 457.511719 C 29.210938 458.25 30.671875 458.605469 32.121094 458.605469 C 35.25 458.605469 38.273438 456.953125 39.882812 454.015625 C 51.292969 433.285156 63.695312 424.476562 90.457031 420.285156 C 69.449219 448.910156 66.425781 469.894531 77.746094 498.296875 C 79.132812 501.765625 82.453125 503.875 85.984375 503.875 C 87.074219 503.875 88.183594 503.667969 89.261719 503.238281 C 93.804688 501.425781 96.019531 496.277344 94.203125 491.746094 C 85.214844 469.171875 87.398438 454.015625 104.949219 430.40625 C 127.136719 485.078125 126.738281 519.53125 126.148438 570.496094 C 126.074219 576.914062 126 583.507812 125.957031 590.429688 L 106.148438 590.429688 C 101.261719 590.429688 97.289062 594.398438 97.289062 599.28125 C 97.289062 604.167969 101.261719 608.136719 106.148438 608.136719 L 651.898438 608.136719 C 656.785156 608.136719 660.753906 604.167969 660.753906 599.28125 C 660.753906 594.398438 656.785156 590.429688 651.898438 590.429688 L 632.074219 590.429688 C 632.03125 583.523438 631.957031 576.929688 631.882812 570.496094 C 631.292969 519.53125 630.894531 485.078125 653.078125 430.40625 C 670.628906 454.015625 672.816406 469.171875 663.824219 491.746094 C 662.011719 496.289062 664.238281 501.441406 668.769531 503.238281 C 669.847656 503.667969 670.957031 503.875 672.046875 503.875 C 675.5625 503.875 678.898438 501.765625 680.285156 498.296875 C 691.605469 469.894531 688.578125 448.910156 667.574219 420.285156 C 694.335938 424.476562 706.734375 433.269531 718.148438 454.015625 C 719.753906 456.953125 722.796875 458.605469 725.910156 458.605469 C 727.359375 458.605469 728.820312 458.25 730.175781 457.511719 C 734.472656 455.183594 736.023438 449.796875 733.675781 445.503906 Z M 537.011719 224.703125 L 537.011719 590.457031 L 475.5625 590.457031 L 475.5625 224.703125 Z M 457.847656 183.65625 L 457.847656 590.457031 L 434.230469 590.457031 L 434.230469 487.4375 C 434.230469 482.554688 430.257812 478.582031 425.371094 478.582031 L 332.671875 478.582031 C 327.785156 478.582031 323.816406 482.554688 323.816406 487.4375 L 323.816406 590.457031 L 300.199219 590.457031 L 300.199219 183.65625 Z M 387.878906 496.289062 L 416.515625 496.289062 L 416.515625 590.457031 L 387.878906 590.457031 Z M 370.164062 590.457031 L 341.527344 590.457031 L 341.527344 496.289062 L 370.164062 496.289062 Z M 221.035156 224.703125 L 282.484375 224.703125 L 282.484375 590.457031 L 221.035156 590.457031 Z M 319.402344 222.949219 L 319.402344 214.539062 C 319.402344 209.652344 323.371094 205.683594 328.257812 205.683594 C 333.144531 205.683594 337.117188 209.652344 337.117188 214.539062 L 337.117188 222.949219 C 337.117188 227.832031 333.144531 231.800781 328.257812 231.800781 C 323.371094 231.800781 319.402344 227.832031 319.402344 222.949219 Z M 353.25 222.949219 L 353.25 214.539062 C 353.25 209.652344 357.21875 205.683594 362.105469 205.683594 C 366.992188 205.683594 370.964844 209.652344 370.964844 214.539062 L 370.964844 222.949219 C 370.964844 227.832031 366.992188 231.800781 362.105469 231.800781 C 357.21875 231.800781 353.25 227.832031 353.25 222.949219 Z M 387.082031 222.949219 L 387.082031 214.539062 C 387.082031 209.652344 391.054688 205.683594 395.9375 205.683594 C 400.824219 205.683594 404.796875 209.652344 404.796875 214.539062 L 404.796875 222.949219 C 404.796875 227.832031 400.824219 231.800781 395.9375 231.800781 C 391.054688 231.800781 387.082031 227.832031 387.082031 222.949219 Z M 420.929688 222.949219 L 420.929688 214.539062 C 420.929688 209.652344 424.902344 205.683594 429.785156 205.683594 C 434.671875 205.683594 438.644531 209.652344 438.644531 214.539062 L 438.644531 222.949219 C 438.644531 227.832031 434.671875 231.800781 429.785156 231.800781 C 424.902344 231.800781 420.929688 227.832031 420.929688 222.949219 Z M 319.402344 279.136719 L 319.402344 270.726562 C 319.402344 265.839844 323.371094 261.871094 328.257812 261.871094 C 333.144531 261.871094 337.117188 265.839844 337.117188 270.726562 L 337.117188 279.136719 C 337.117188 284.019531 333.144531 287.988281 328.257812 287.988281 C 323.371094 287.988281 319.402344 284.019531 319.402344 279.136719 Z M 353.25 279.136719 L 353.25 270.726562 C 353.25 265.839844 357.21875 261.871094 362.105469 261.871094 C 366.992188 261.871094 370.964844 265.839844 370.964844 270.726562 L 370.964844 279.136719 C 370.964844 284.019531 366.992188 287.988281 362.105469 287.988281 C 357.21875 287.988281 353.25 284.019531 353.25 279.136719 Z M 387.082031 279.136719 L 387.082031 270.726562 C 387.082031 265.839844 391.054688 261.871094 395.9375 261.871094 C 400.824219 261.871094 404.796875 265.839844 404.796875 270.726562 L 404.796875 279.136719 C 404.796875 284.019531 400.824219 287.988281 395.9375 287.988281 C 391.054688 287.988281 387.082031 284.019531 387.082031 279.136719 Z M 420.929688 279.136719 L 420.929688 270.726562 C 420.929688 265.839844 424.902344 261.871094 429.785156 261.871094 C 434.671875 261.871094 438.644531 265.839844 438.644531 270.726562 L 438.644531 279.136719 C 438.644531 284.019531 434.671875 287.988281 429.785156 287.988281 C 424.902344 287.988281 420.929688 284.019531 420.929688 279.136719 Z M 319.402344 335.324219 L 319.402344 326.914062 C 319.402344 322.03125 323.371094 318.0625 328.257812 318.0625 C 333.144531 318.0625 337.117188 322.03125 337.117188 326.914062 L 337.117188 335.324219 C 337.117188 340.207031 333.144531 344.175781 328.257812 344.175781 C 323.371094 344.175781 319.402344 340.207031 319.402344 335.324219 Z M 353.25 335.324219 L 353.25 326.914062 C 353.25 322.03125 357.21875 318.0625 362.105469 318.0625 C 366.992188 318.0625 370.964844 322.03125 370.964844 326.914062 L 370.964844 335.324219 C 370.964844 340.207031 366.992188 344.175781 362.105469 344.175781 C 357.21875 344.175781 353.25 340.207031 353.25 335.324219 Z M 387.082031 335.324219 L 387.082031 326.914062 C 387.082031 322.03125 391.054688 318.0625 395.9375 318.0625 C 400.824219 318.0625 404.796875 322.03125 404.796875 326.914062 L 404.796875 335.324219 C 404.796875 340.207031 400.824219 344.175781 395.9375 344.175781 C 391.054688 344.175781 387.082031 340.207031 387.082031 335.324219 Z M 420.929688 335.324219 L 420.929688 326.914062 C 420.929688 322.03125 424.902344 318.0625 429.785156 318.0625 C 434.671875 318.0625 438.644531 322.03125 438.644531 326.914062 L 438.644531 335.324219 C 438.644531 340.207031 434.671875 344.175781 429.785156 344.175781 C 424.902344 344.175781 420.929688 340.207031 420.929688 335.324219 Z M 319.402344 391.511719 L 319.402344 383.101562 C 319.402344 378.21875 323.371094 374.25 328.257812 374.25 C 333.144531 374.25 337.117188 378.21875 337.117188 383.101562 L 337.117188 391.511719 C 337.117188 396.398438 333.144531 400.367188 328.257812 400.367188 C 323.371094 400.367188 319.402344 396.398438 319.402344 391.511719 Z M 353.25 391.511719 L 353.25 383.101562 C 353.25 378.21875 357.21875 374.25 362.105469 374.25 C 366.992188 374.25 370.964844 378.21875 370.964844 383.101562 L 370.964844 391.511719 C 370.964844 396.398438 366.992188 400.367188 362.105469 400.367188 C 357.21875 400.367188 353.25 396.398438 353.25 391.511719 Z M 387.082031 391.511719 L 387.082031 383.101562 C 387.082031 378.21875 391.054688 374.25 395.9375 374.25 C 400.824219 374.25 404.796875 378.21875 404.796875 383.101562 L 404.796875 391.511719 C 404.796875 396.398438 400.824219 400.367188 395.9375 400.367188 C 391.054688 400.367188 387.082031 396.398438 387.082031 391.511719 Z M 420.929688 391.511719 L 420.929688 383.101562 C 420.929688 378.21875 424.902344 374.25 429.785156 374.25 C 434.671875 374.25 438.644531 378.21875 438.644531 383.101562 L 438.644531 391.511719 C 438.644531 396.398438 434.671875 400.367188 429.785156 400.367188 C 424.902344 400.367188 420.929688 396.398438 420.929688 391.511719 Z M 319.402344 447.699219 L 319.402344 439.289062 C 319.402344 434.40625 323.371094 430.4375 328.257812 430.4375 C 333.144531 430.4375 337.117188 434.40625 337.117188 439.289062 L 337.117188 447.699219 C 337.117188 452.585938 333.144531 456.554688 328.257812 456.554688 C 323.371094 456.554688 319.402344 452.585938 319.402344 447.699219 Z M 353.25 447.699219 L 353.25 439.289062 C 353.25 434.40625 357.21875 430.4375 362.105469 430.4375 C 366.992188 430.4375 370.964844 434.40625 370.964844 439.289062 L 370.964844 447.699219 C 370.964844 452.585938 366.992188 456.554688 362.105469 456.554688 C 357.21875 456.554688 353.25 452.585938 353.25 447.699219 Z M 387.082031 447.699219 L 387.082031 439.289062 C 387.082031 434.40625 391.054688 430.4375 395.9375 430.4375 C 400.824219 430.4375 404.796875 434.40625 404.796875 439.289062 L 404.796875 447.699219 C 404.796875 452.585938 400.824219 456.554688 395.9375 456.554688 C 391.054688 456.554688 387.082031 452.585938 387.082031 447.699219 Z M 420.929688 447.699219 L 420.929688 439.289062 C 420.929688 434.40625 424.902344 430.4375 429.785156 430.4375 C 434.671875 430.4375 438.644531 434.40625 438.644531 439.289062 L 438.644531 447.699219 C 438.644531 452.585938 434.671875 456.554688 429.785156 456.554688 C 424.902344 456.554688 420.929688 452.585938 420.929688 447.699219 Z M 497.421875 271.359375 L 497.421875 264.394531 C 497.421875 259.511719 501.394531 255.542969 506.277344 255.542969 C 511.164062 255.542969 515.136719 259.511719 515.136719 264.394531 L 515.136719 271.359375 C 515.136719 276.242188 511.164062 280.214844 506.277344 280.214844 C 501.394531 280.214844 497.421875 276.242188 497.421875 271.359375 Z M 497.421875 317.929688 L 497.421875 310.964844 C 497.421875 306.078125 501.394531 302.109375 506.277344 302.109375 C 511.164062 302.109375 515.136719 306.078125 515.136719 310.964844 L 515.136719 317.929688 C 515.136719 322.8125 511.164062 326.78125 506.277344 326.78125 C 501.394531 326.78125 497.421875 322.8125 497.421875 317.929688 Z M 497.421875 457.632812 L 497.421875 450.667969 C 497.421875 445.78125 501.394531 441.8125 506.277344 441.8125 C 511.164062 441.8125 515.136719 445.78125 515.136719 450.667969 L 515.136719 457.632812 C 515.136719 462.515625 511.164062 466.484375 506.277344 466.484375 C 501.394531 466.484375 497.421875 462.53125 497.421875 457.632812 Z M 497.421875 364.496094 L 497.421875 357.53125 C 497.421875 352.648438 501.394531 348.679688 506.277344 348.679688 C 511.164062 348.679688 515.136719 352.648438 515.136719 357.53125 L 515.136719 364.496094 C 515.136719 369.378906 511.164062 373.347656 506.277344 373.347656 C 501.394531 373.347656 497.421875 369.378906 497.421875 364.496094 Z M 497.421875 504.199219 L 497.421875 497.234375 C 497.421875 492.351562 501.394531 488.382812 506.277344 488.382812 C 511.164062 488.382812 515.136719 492.351562 515.136719 497.234375 L 515.136719 504.199219 C 515.136719 509.082031 511.164062 513.050781 506.277344 513.050781 C 501.394531 513.050781 497.421875 509.097656 497.421875 504.199219 Z M 497.421875 411.0625 L 497.421875 404.097656 C 497.421875 399.214844 501.394531 395.246094 506.277344 395.246094 C 511.164062 395.246094 515.136719 399.214844 515.136719 404.097656 L 515.136719 411.0625 C 515.136719 415.949219 511.164062 419.917969 506.277344 419.917969 C 501.394531 419.917969 497.421875 415.949219 497.421875 411.0625 Z M 497.421875 550.78125 L 497.421875 543.816406 C 497.421875 538.933594 501.394531 534.964844 506.277344 534.964844 C 511.164062 534.964844 515.136719 538.933594 515.136719 543.816406 L 515.136719 550.78125 C 515.136719 555.664062 511.164062 559.636719 506.277344 559.636719 C 501.394531 559.636719 497.421875 555.664062 497.421875 550.78125 Z M 260.621094 264.378906 L 260.621094 271.34375 C 260.621094 276.230469 256.652344 280.199219 251.765625 280.199219 C 246.878906 280.199219 242.910156 276.230469 242.910156 271.34375 L 242.910156 264.378906 C 242.910156 259.496094 246.878906 255.527344 251.765625 255.527344 C 256.652344 255.527344 260.621094 259.496094 260.621094 264.378906 Z M 260.621094 310.964844 L 260.621094 317.929688 C 260.621094 322.8125 256.652344 326.78125 251.765625 326.78125 C 246.878906 326.78125 242.910156 322.8125 242.910156 317.929688 L 242.910156 310.964844 C 242.910156 306.078125 246.878906 302.109375 251.765625 302.109375 C 256.652344 302.109375 260.621094 306.066406 260.621094 310.964844 Z M 260.621094 450.667969 L 260.621094 457.632812 C 260.621094 462.515625 256.652344 466.484375 251.765625 466.484375 C 246.878906 466.484375 242.910156 462.515625 242.910156 457.632812 L 242.910156 450.667969 C 242.910156 445.78125 246.878906 441.8125 251.765625 441.8125 C 256.652344 441.8125 260.621094 445.78125 260.621094 450.667969 Z M 260.621094 357.53125 L 260.621094 364.496094 C 260.621094 369.378906 256.652344 373.347656 251.765625 373.347656 C 246.878906 373.347656 242.910156 369.378906 242.910156 364.496094 L 242.910156 357.53125 C 242.910156 352.648438 246.878906 348.679688 251.765625 348.679688 C 256.652344 348.679688 260.621094 352.632812 260.621094 357.53125 Z M 260.621094 497.234375 L 260.621094 504.199219 C 260.621094 509.082031 256.652344 513.050781 251.765625 513.050781 C 246.878906 513.050781 242.910156 509.082031 242.910156 504.199219 L 242.910156 497.234375 C 242.910156 492.351562 246.878906 488.382812 251.765625 488.382812 C 256.652344 488.382812 260.621094 492.351562 260.621094 497.234375 Z M 260.621094 404.097656 L 260.621094 411.0625 C 260.621094 415.949219 256.652344 419.917969 251.765625 419.917969 C 246.878906 419.917969 242.910156 415.949219 242.910156 411.0625 L 242.910156 404.097656 C 242.910156 399.214844 246.878906 395.246094 251.765625 395.246094 C 256.652344 395.246094 260.621094 399.214844 260.621094 404.097656 Z M 260.621094 543.800781 L 260.621094 550.765625 C 260.621094 555.652344 256.652344 559.621094 251.765625 559.621094 C 246.878906 559.621094 242.910156 555.652344 242.910156 550.765625 L 242.910156 543.800781 C 242.910156 538.917969 246.878906 534.949219 251.765625 534.949219 C 256.652344 534.949219 260.621094 538.917969 260.621094 543.800781 Z M 260.621094 543.800781 " fill-opacity="1" fill-rule="nonzero"/></g></svg>