<svg xmlns="http://www.w3.org/2000/svg" xmlns:xlink="http://www.w3.org/1999/xlink" width="1024" zoomAndPan="magnify" viewBox="0 0 768 767.999994" height="1024" preserveAspectRatio="xMidYMid meet" version="1.0"><defs><clipPath id="d54bb10b08"><path d="M 87.839844 211.898438 L 654.839844 211.898438 L 654.839844 264 L 87.839844 264 Z M 87.839844 211.898438 " clip-rule="nonzero"/></clipPath><clipPath id="aae995f9b3"><path d="M 87.839844 366 L 552 366 L 552 419 L 87.839844 419 Z M 87.839844 366 " clip-rule="nonzero"/></clipPath><clipPath id="25b1f22457"><path d="M 87.839844 521 L 449 521 L 449 572.648438 L 87.839844 572.648438 Z M 87.839844 521 " clip-rule="nonzero"/></clipPath></defs><g clip-path="url(#d54bb10b08)"><path fill="#000000" d="M 629.019531 263.433594 L 113.664062 263.433594 C 112.816406 263.433594 111.976562 263.390625 111.136719 263.308594 C 110.296875 263.226562 109.460938 263.101562 108.636719 262.9375 C 107.808594 262.773438 106.988281 262.566406 106.183594 262.324219 C 105.375 262.078125 104.582031 261.792969 103.800781 261.472656 C 103.023438 261.148438 102.257812 260.789062 101.515625 260.390625 C 100.769531 259.992188 100.046875 259.558594 99.347656 259.089844 C 98.644531 258.621094 97.96875 258.121094 97.316406 257.582031 C 96.664062 257.046875 96.039062 256.480469 95.441406 255.886719 C 94.84375 255.289062 94.277344 254.664062 93.742188 254.011719 C 93.207031 253.359375 92.707031 252.683594 92.238281 251.980469 C 91.769531 251.277344 91.335938 250.554688 90.9375 249.8125 C 90.539062 249.066406 90.179688 248.304688 89.855469 247.527344 C 89.53125 246.746094 89.25 245.953125 89.003906 245.144531 C 88.757812 244.335938 88.554688 243.519531 88.390625 242.691406 C 88.226562 241.863281 88.101562 241.03125 88.019531 240.191406 C 87.9375 239.351562 87.894531 238.507812 87.894531 237.664062 C 87.894531 236.820312 87.9375 235.980469 88.019531 235.140625 C 88.101562 234.300781 88.226562 233.464844 88.390625 232.636719 C 88.554688 231.808594 88.757812 230.992188 89.003906 230.183594 C 89.25 229.378906 89.53125 228.582031 89.855469 227.804688 C 90.179688 227.023438 90.539062 226.261719 90.9375 225.519531 C 91.335938 224.773438 91.769531 224.050781 92.238281 223.347656 C 92.707031 222.648438 93.207031 221.96875 93.742188 221.316406 C 94.277344 220.664062 94.84375 220.042969 95.441406 219.445312 C 96.039062 218.847656 96.664062 218.28125 97.316406 217.746094 C 97.96875 217.210938 98.644531 216.707031 99.347656 216.238281 C 100.046875 215.769531 100.769531 215.335938 101.515625 214.941406 C 102.257812 214.542969 103.023438 214.179688 103.800781 213.859375 C 104.582031 213.535156 105.375 213.25 106.183594 213.007812 C 106.988281 212.761719 107.808594 212.558594 108.636719 212.390625 C 109.460938 212.226562 110.296875 212.105469 111.136719 212.019531 C 111.976562 211.9375 112.816406 211.898438 113.664062 211.898438 L 629.019531 211.898438 C 629.863281 211.898438 630.707031 211.9375 631.546875 212.019531 C 632.386719 212.105469 633.21875 212.226562 634.046875 212.390625 C 634.875 212.558594 635.691406 212.761719 636.5 213.007812 C 637.308594 213.25 638.101562 213.535156 638.882812 213.859375 C 639.660156 214.179688 640.421875 214.542969 641.167969 214.941406 C 641.910156 215.335938 642.636719 215.769531 643.335938 216.238281 C 644.039062 216.707031 644.714844 217.210938 645.367188 217.746094 C 646.019531 218.28125 646.644531 218.847656 647.242188 219.445312 C 647.839844 220.042969 648.40625 220.664062 648.941406 221.316406 C 649.476562 221.96875 649.976562 222.648438 650.445312 223.347656 C 650.914062 224.050781 651.347656 224.773438 651.746094 225.519531 C 652.144531 226.261719 652.503906 227.023438 652.828125 227.804688 C 653.148438 228.582031 653.433594 229.378906 653.679688 230.183594 C 653.925781 230.992188 654.128906 231.808594 654.292969 232.636719 C 654.457031 233.464844 654.582031 234.300781 654.664062 235.140625 C 654.746094 235.980469 654.789062 236.820312 654.789062 237.664062 C 654.789062 238.507812 654.746094 239.351562 654.664062 240.191406 C 654.582031 241.03125 654.457031 241.863281 654.292969 242.691406 C 654.128906 243.519531 653.925781 244.335938 653.679688 245.144531 C 653.433594 245.953125 653.148438 246.746094 652.828125 247.527344 C 652.503906 248.304688 652.144531 249.066406 651.746094 249.8125 C 651.347656 250.554688 650.914062 251.277344 650.445312 251.980469 C 649.976562 252.683594 649.476562 253.359375 648.941406 254.011719 C 648.40625 254.664062 647.839844 255.289062 647.242188 255.886719 C 646.644531 256.480469 646.019531 257.046875 645.367188 257.582031 C 644.714844 258.121094 644.039062 258.621094 643.335938 259.089844 C 642.636719 259.558594 641.910156 259.992188 641.167969 260.390625 C 640.421875 260.789062 639.660156 261.148438 638.882812 261.472656 C 638.101562 261.792969 637.308594 262.078125 636.5 262.324219 C 635.691406 262.566406 634.875 262.773438 634.046875 262.9375 C 633.21875 263.101562 632.386719 263.226562 631.546875 263.308594 C 630.707031 263.390625 629.863281 263.433594 629.019531 263.433594 Z M 629.019531 263.433594 " fill-opacity="1" fill-rule="nonzero"/></g><g clip-path="url(#aae995f9b3)"><path fill="#000000" d="M 525.949219 418.039062 L 113.664062 418.039062 C 112.816406 418.039062 111.976562 418 111.136719 417.914062 C 110.296875 417.832031 109.460938 417.710938 108.636719 417.542969 C 107.808594 417.378906 106.988281 417.175781 106.183594 416.929688 C 105.375 416.683594 104.582031 416.402344 103.800781 416.078125 C 103.023438 415.753906 102.257812 415.394531 101.515625 414.996094 C 100.769531 414.597656 100.046875 414.167969 99.347656 413.699219 C 98.644531 413.226562 97.96875 412.726562 97.316406 412.191406 C 96.664062 411.65625 96.039062 411.089844 95.441406 410.492188 C 94.84375 409.894531 94.277344 409.269531 93.742188 408.617188 C 93.207031 407.964844 92.707031 407.289062 92.238281 406.589844 C 91.769531 405.886719 91.335938 405.164062 90.9375 404.417969 C 90.539062 403.675781 90.179688 402.914062 89.855469 402.132812 C 89.53125 401.351562 89.25 400.558594 89.003906 399.753906 C 88.757812 398.945312 88.554688 398.125 88.390625 397.300781 C 88.226562 396.472656 88.101562 395.636719 88.019531 394.796875 C 87.9375 393.957031 87.894531 393.117188 87.894531 392.273438 C 87.894531 391.429688 87.9375 390.585938 88.019531 389.746094 C 88.101562 388.90625 88.226562 388.074219 88.390625 387.246094 C 88.554688 386.417969 88.757812 385.601562 89.003906 384.792969 C 89.25 383.984375 89.53125 383.191406 89.855469 382.410156 C 90.179688 381.632812 90.539062 380.871094 90.9375 380.125 C 91.335938 379.382812 91.769531 378.65625 92.238281 377.957031 C 92.707031 377.253906 93.207031 376.578125 93.742188 375.925781 C 94.277344 375.273438 94.84375 374.648438 95.441406 374.050781 C 96.039062 373.453125 96.664062 372.890625 97.316406 372.351562 C 97.96875 371.816406 98.644531 371.316406 99.347656 370.847656 C 100.046875 370.378906 100.769531 369.945312 101.515625 369.546875 C 102.257812 369.148438 103.023438 368.789062 103.800781 368.464844 C 104.582031 368.144531 105.375 367.859375 106.183594 367.613281 C 106.988281 367.367188 107.808594 367.164062 108.636719 367 C 109.460938 366.835938 110.296875 366.710938 111.136719 366.628906 C 111.976562 366.546875 112.816406 366.503906 113.664062 366.503906 L 525.949219 366.503906 C 526.792969 366.503906 527.636719 366.546875 528.476562 366.628906 C 529.316406 366.710938 530.148438 366.835938 530.976562 367 C 531.804688 367.164062 532.621094 367.367188 533.429688 367.613281 C 534.238281 367.859375 535.03125 368.144531 535.808594 368.464844 C 536.589844 368.789062 537.351562 369.148438 538.097656 369.546875 C 538.839844 369.945312 539.5625 370.378906 540.265625 370.847656 C 540.964844 371.316406 541.644531 371.816406 542.296875 372.351562 C 542.949219 372.890625 543.574219 373.453125 544.167969 374.050781 C 544.765625 374.648438 545.332031 375.273438 545.867188 375.925781 C 546.402344 376.578125 546.90625 377.253906 547.375 377.957031 C 547.84375 378.65625 548.277344 379.382812 548.675781 380.125 C 549.070312 380.871094 549.433594 381.632812 549.753906 382.410156 C 550.078125 383.191406 550.363281 383.984375 550.605469 384.792969 C 550.851562 385.601562 551.058594 386.417969 551.222656 387.246094 C 551.386719 388.074219 551.511719 388.90625 551.59375 389.746094 C 551.675781 390.585938 551.71875 391.429688 551.71875 392.273438 C 551.71875 393.117188 551.675781 393.957031 551.59375 394.796875 C 551.511719 395.636719 551.386719 396.472656 551.222656 397.300781 C 551.058594 398.125 550.851562 398.945312 550.605469 399.753906 C 550.363281 400.558594 550.078125 401.351562 549.753906 402.132812 C 549.433594 402.914062 549.070312 403.675781 548.675781 404.417969 C 548.277344 405.164062 547.84375 405.886719 547.375 406.589844 C 546.90625 407.289062 546.402344 407.964844 545.867188 408.617188 C 545.332031 409.269531 544.765625 409.894531 544.167969 410.492188 C 543.574219 411.089844 542.949219 411.65625 542.296875 412.191406 C 541.644531 412.726562 540.964844 413.226562 540.265625 413.699219 C 539.5625 414.167969 538.839844 414.597656 538.097656 414.996094 C 537.351562 415.394531 536.589844 415.753906 535.808594 416.078125 C 535.03125 416.402344 534.238281 416.683594 533.429688 416.929688 C 532.621094 417.175781 531.804688 417.378906 530.976562 417.542969 C 530.148438 417.710938 529.316406 417.832031 528.476562 417.914062 C 527.636719 418 526.792969 418.039062 525.949219 418.039062 Z M 525.949219 418.039062 " fill-opacity="1" fill-rule="nonzero"/></g><g clip-path="url(#25b1f22457)"><path fill="#000000" d="M 422.878906 572.648438 L 113.664062 572.648438 C 112.816406 572.648438 111.976562 572.605469 111.136719 572.523438 C 110.296875 572.441406 109.460938 572.316406 108.636719 572.152344 C 107.808594 571.988281 106.988281 571.78125 106.183594 571.539062 C 105.375 571.292969 104.582031 571.007812 103.800781 570.6875 C 103.023438 570.363281 102.257812 570.003906 101.515625 569.605469 C 100.769531 569.207031 100.046875 568.773438 99.347656 568.304688 C 98.644531 567.835938 97.96875 567.332031 97.316406 566.796875 C 96.664062 566.261719 96.039062 565.695312 95.441406 565.101562 C 94.84375 564.503906 94.277344 563.878906 93.742188 563.226562 C 93.207031 562.574219 92.707031 561.898438 92.238281 561.195312 C 91.769531 560.492188 91.335938 559.769531 90.9375 559.027344 C 90.539062 558.28125 90.179688 557.519531 89.855469 556.738281 C 89.53125 555.960938 89.25 555.167969 89.003906 554.359375 C 88.757812 553.550781 88.554688 552.734375 88.390625 551.90625 C 88.226562 551.078125 88.101562 550.246094 88.019531 549.40625 C 87.9375 548.566406 87.894531 547.722656 87.894531 546.878906 C 87.894531 546.035156 87.9375 545.195312 88.019531 544.355469 C 88.101562 543.515625 88.226562 542.679688 88.390625 541.851562 C 88.554688 541.023438 88.757812 540.207031 89.003906 539.398438 C 89.25 538.589844 89.53125 537.796875 89.855469 537.019531 C 90.179688 536.238281 90.539062 535.476562 90.9375 534.730469 C 91.335938 533.988281 91.769531 533.265625 92.238281 532.5625 C 92.707031 531.863281 93.207031 531.183594 93.742188 530.53125 C 94.277344 529.878906 94.84375 529.253906 95.441406 528.660156 C 96.039062 528.0625 96.664062 527.496094 97.316406 526.960938 C 97.96875 526.425781 98.644531 525.921875 99.347656 525.453125 C 100.046875 524.984375 100.769531 524.550781 101.515625 524.152344 C 102.257812 523.757812 103.023438 523.394531 103.800781 523.074219 C 104.582031 522.75 105.375 522.464844 106.183594 522.222656 C 106.988281 521.976562 107.808594 521.769531 108.636719 521.605469 C 109.460938 521.441406 110.296875 521.316406 111.136719 521.234375 C 111.976562 521.152344 112.816406 521.113281 113.664062 521.113281 L 422.878906 521.113281 C 423.722656 521.113281 424.5625 521.152344 425.402344 521.234375 C 426.242188 521.316406 427.078125 521.441406 427.90625 521.605469 C 428.730469 521.769531 429.550781 521.976562 430.359375 522.222656 C 431.164062 522.464844 431.957031 522.75 432.738281 523.074219 C 433.519531 523.394531 434.28125 523.757812 435.023438 524.152344 C 435.769531 524.550781 436.492188 524.984375 437.191406 525.453125 C 437.894531 525.921875 438.570312 526.425781 439.222656 526.960938 C 439.875 527.496094 440.5 528.0625 441.097656 528.660156 C 441.695312 529.253906 442.261719 529.878906 442.796875 530.53125 C 443.332031 531.183594 443.832031 531.863281 444.300781 532.5625 C 444.769531 533.265625 445.203125 533.988281 445.601562 534.730469 C 446 535.476562 446.359375 536.238281 446.683594 537.019531 C 447.007812 537.796875 447.289062 538.589844 447.535156 539.398438 C 447.78125 540.207031 447.984375 541.023438 448.148438 541.851562 C 448.316406 542.679688 448.4375 543.515625 448.519531 544.355469 C 448.605469 545.195312 448.644531 546.035156 448.644531 546.878906 C 448.644531 547.722656 448.605469 548.566406 448.519531 549.40625 C 448.4375 550.246094 448.316406 551.078125 448.148438 551.90625 C 447.984375 552.734375 447.78125 553.550781 447.535156 554.359375 C 447.289062 555.167969 447.007812 555.960938 446.683594 556.738281 C 446.359375 557.519531 446 558.28125 445.601562 559.027344 C 445.203125 559.769531 444.769531 560.492188 444.300781 561.195312 C 443.832031 561.898438 443.332031 562.574219 442.796875 563.226562 C 442.261719 563.878906 441.695312 564.503906 441.097656 565.101562 C 440.5 565.695312 439.875 566.261719 439.222656 566.796875 C 438.570312 567.332031 437.894531 567.835938 437.191406 568.304688 C 436.492188 568.773438 435.769531 569.207031 435.023438 569.605469 C 434.28125 570.003906 433.519531 570.363281 432.738281 570.6875 C 431.957031 571.007812 431.164062 571.292969 430.359375 571.539062 C 429.550781 571.78125 428.730469 571.988281 427.90625 572.152344 C 427.078125 572.316406 426.242188 572.441406 425.402344 572.523438 C 424.5625 572.605469 423.722656 572.648438 422.878906 572.648438 Z M 422.878906 572.648438 " fill-opacity="1" fill-rule="nonzero"/></g></svg>