<svg xmlns="http://www.w3.org/2000/svg" xmlns:xlink="http://www.w3.org/1999/xlink" width="1024" zoomAndPan="magnify" viewBox="0 0 768 767.999994" height="1024" preserveAspectRatio="xMidYMid meet" version="1.0"><defs><clipPath id="745bb062d7"><path d="M 157.554688 12.757812 L 622.554688 12.757812 L 622.554688 734 L 157.554688 734 Z M 157.554688 12.757812 " clip-rule="nonzero"/></clipPath></defs><path fill="#000000" d="M 472.09375 573.660156 L 437.714844 539.28125 C 437.414062 538.980469 437.089844 538.710938 436.738281 538.476562 C 436.386719 538.238281 436.011719 538.039062 435.621094 537.878906 C 435.230469 537.714844 434.824219 537.589844 434.410156 537.507812 C 433.992188 537.425781 433.574219 537.382812 433.148438 537.382812 C 432.726562 537.382812 432.304688 537.421875 431.890625 537.503906 C 431.472656 537.589844 431.070312 537.710938 430.675781 537.871094 C 430.285156 538.035156 429.914062 538.234375 429.558594 538.46875 C 429.207031 538.703125 428.878906 538.972656 428.582031 539.273438 C 428.28125 539.574219 428.011719 539.898438 427.777344 540.25 C 427.542969 540.605469 427.34375 540.976562 427.179688 541.367188 C 427.019531 541.761719 426.894531 542.164062 426.8125 542.582031 C 426.730469 542.996094 426.691406 543.417969 426.691406 543.84375 C 426.691406 544.265625 426.730469 544.6875 426.816406 545.101562 C 426.898438 545.519531 427.023438 545.921875 427.183594 546.3125 C 427.347656 546.707031 427.546875 547.078125 427.785156 547.429688 C 428.019531 547.78125 428.289062 548.109375 428.589844 548.40625 L 472.09375 591.914062 L 555.507812 508.503906 C 555.804688 508.203125 556.074219 507.875 556.308594 507.523438 C 556.542969 507.171875 556.742188 506.800781 556.90625 506.410156 C 557.066406 506.015625 557.191406 505.613281 557.273438 505.199219 C 557.355469 504.78125 557.398438 504.363281 557.398438 503.9375 C 557.398438 503.515625 557.355469 503.09375 557.273438 502.679688 C 557.191406 502.265625 557.066406 501.859375 556.90625 501.46875 C 556.742188 501.078125 556.542969 500.707031 556.308594 500.351562 C 556.074219 500 555.804688 499.675781 555.507812 499.375 C 555.207031 499.074219 554.878906 498.808594 554.527344 498.574219 C 554.175781 498.335938 553.804688 498.136719 553.414062 497.976562 C 553.019531 497.8125 552.617188 497.691406 552.203125 497.609375 C 551.785156 497.527344 551.367188 497.484375 550.941406 497.484375 C 550.519531 497.484375 550.097656 497.527344 549.683594 497.609375 C 549.269531 497.691406 548.863281 497.8125 548.472656 497.976562 C 548.082031 498.136719 547.710938 498.335938 547.355469 498.574219 C 547.003906 498.808594 546.679688 499.074219 546.378906 499.375 Z M 472.09375 573.660156 " fill-opacity="1" fill-rule="nonzero"/><path fill="#000000" d="M 232.691406 304.808594 C 232.042969 304.8125 231.390625 304.84375 230.746094 304.90625 C 230.097656 304.972656 229.457031 305.066406 228.820312 305.195312 C 228.179688 305.324219 227.550781 305.480469 226.929688 305.671875 C 226.308594 305.859375 225.695312 306.078125 225.09375 306.328125 C 224.496094 306.578125 223.90625 306.855469 223.335938 307.160156 C 222.761719 307.46875 222.203125 307.800781 221.664062 308.164062 C 221.121094 308.527344 220.601562 308.914062 220.097656 309.324219 C 219.597656 309.738281 219.113281 310.171875 218.65625 310.632812 C 218.195312 311.09375 217.757812 311.574219 217.347656 312.078125 C 216.933594 312.578125 216.546875 313.101562 216.1875 313.640625 C 215.824219 314.183594 215.492188 314.738281 215.183594 315.3125 C 214.878906 315.886719 214.597656 316.472656 214.351562 317.074219 C 214.101562 317.675781 213.882812 318.285156 213.691406 318.90625 C 213.503906 319.53125 213.34375 320.160156 213.21875 320.796875 C 213.089844 321.433594 212.996094 322.078125 212.929688 322.722656 C 212.867188 323.371094 212.832031 324.019531 212.832031 324.667969 L 212.832031 594.195312 C 212.835938 594.84375 212.867188 595.492188 212.933594 596.136719 C 213 596.78125 213.097656 597.421875 213.226562 598.058594 C 213.355469 598.695312 213.515625 599.324219 213.707031 599.941406 C 213.894531 600.5625 214.117188 601.171875 214.367188 601.773438 C 214.617188 602.371094 214.894531 602.957031 215.203125 603.527344 C 215.507812 604.097656 215.84375 604.652344 216.207031 605.191406 C 216.566406 605.730469 216.953125 606.25 217.367188 606.75 C 217.78125 607.25 218.214844 607.730469 218.675781 608.1875 C 219.136719 608.644531 219.617188 609.082031 220.117188 609.492188 C 220.621094 609.902344 221.140625 610.289062 221.683594 610.648438 C 222.222656 611.007812 222.777344 611.339844 223.351562 611.644531 C 223.921875 611.949219 224.511719 612.226562 225.109375 612.472656 C 225.710938 612.722656 226.320312 612.9375 226.941406 613.125 C 227.5625 613.316406 228.191406 613.472656 228.828125 613.597656 C 229.464844 613.722656 230.105469 613.820312 230.75 613.882812 C 231.394531 613.945312 232.042969 613.976562 232.691406 613.976562 C 233.339844 613.976562 233.988281 613.945312 234.632812 613.882812 C 235.277344 613.820312 235.917969 613.722656 236.554688 613.597656 C 237.191406 613.472656 237.820312 613.316406 238.441406 613.125 C 239.0625 612.9375 239.671875 612.722656 240.273438 612.472656 C 240.871094 612.226562 241.460938 611.949219 242.03125 611.644531 C 242.605469 611.339844 243.160156 611.007812 243.699219 610.648438 C 244.242188 610.289062 244.761719 609.902344 245.265625 609.492188 C 245.765625 609.082031 246.246094 608.644531 246.707031 608.1875 C 247.167969 607.730469 247.601562 607.25 248.015625 606.75 C 248.429688 606.25 248.816406 605.730469 249.175781 605.191406 C 249.539062 604.652344 249.875 604.097656 250.179688 603.527344 C 250.488281 602.957031 250.765625 602.371094 251.015625 601.773438 C 251.265625 601.171875 251.488281 600.5625 251.675781 599.941406 C 251.867188 599.324219 252.027344 598.695312 252.15625 598.058594 C 252.285156 597.421875 252.382812 596.78125 252.449219 596.136719 C 252.515625 595.492188 252.546875 594.84375 252.550781 594.195312 L 252.550781 324.667969 C 252.550781 324.019531 252.515625 323.371094 252.453125 322.722656 C 252.386719 322.078125 252.292969 321.433594 252.164062 320.796875 C 252.039062 320.160156 251.878906 319.527344 251.691406 318.90625 C 251.5 318.285156 251.28125 317.671875 251.03125 317.074219 C 250.785156 316.472656 250.503906 315.886719 250.199219 315.3125 C 249.890625 314.738281 249.558594 314.183594 249.195312 313.640625 C 248.835938 313.101562 248.449219 312.578125 248.035156 312.078125 C 247.621094 311.574219 247.1875 311.09375 246.726562 310.632812 C 246.265625 310.171875 245.785156 309.738281 245.285156 309.324219 C 244.78125 308.914062 244.257812 308.523438 243.71875 308.164062 C 243.179688 307.800781 242.621094 307.46875 242.046875 307.160156 C 241.476562 306.855469 240.886719 306.578125 240.289062 306.328125 C 239.6875 306.078125 239.074219 305.859375 238.453125 305.671875 C 237.832031 305.480469 237.203125 305.324219 236.5625 305.195312 C 235.925781 305.066406 235.285156 304.972656 234.636719 304.90625 C 233.988281 304.84375 233.339844 304.8125 232.691406 304.808594 Z M 239.640625 594.195312 C 239.640625 594.648438 239.59375 595.101562 239.5 595.546875 C 239.410156 595.992188 239.277344 596.421875 239.101562 596.84375 C 238.925781 597.261719 238.710938 597.660156 238.453125 598.035156 C 238.199219 598.414062 237.914062 598.761719 237.589844 599.082031 C 237.269531 599.402344 236.917969 599.6875 236.539062 599.941406 C 236.160156 600.191406 235.761719 600.402344 235.339844 600.578125 C 234.921875 600.75 234.488281 600.882812 234.042969 600.96875 C 233.59375 601.058594 233.144531 601.101562 232.691406 601.101562 C 232.234375 601.101562 231.785156 601.058594 231.339844 600.96875 C 230.894531 600.882812 230.460938 600.75 230.039062 600.578125 C 229.621094 600.402344 229.222656 600.191406 228.84375 599.941406 C 228.464844 599.6875 228.113281 599.402344 227.789062 599.082031 C 227.46875 598.761719 227.179688 598.414062 226.925781 598.035156 C 226.671875 597.660156 226.457031 597.261719 226.28125 596.84375 C 226.105469 596.421875 225.972656 595.992188 225.878906 595.546875 C 225.789062 595.101562 225.742188 594.648438 225.738281 594.195312 L 225.738281 324.667969 C 225.742188 324.214844 225.789062 323.765625 225.878906 323.320312 C 225.972656 322.875 226.105469 322.441406 226.28125 322.023438 C 226.457031 321.605469 226.671875 321.207031 226.925781 320.828125 C 227.179688 320.453125 227.46875 320.101562 227.789062 319.78125 C 228.113281 319.460938 228.464844 319.175781 228.84375 318.925781 C 229.222656 318.671875 229.621094 318.460938 230.039062 318.289062 C 230.460938 318.113281 230.894531 317.984375 231.339844 317.894531 C 231.785156 317.808594 232.234375 317.761719 232.691406 317.761719 C 233.144531 317.761719 233.59375 317.808594 234.042969 317.894531 C 234.488281 317.984375 234.921875 318.113281 235.339844 318.289062 C 235.761719 318.460938 236.160156 318.671875 236.539062 318.925781 C 236.917969 319.175781 237.269531 319.460938 237.589844 319.78125 C 237.914062 320.101562 238.199219 320.453125 238.453125 320.828125 C 238.710938 321.207031 238.925781 321.605469 239.101562 322.023438 C 239.277344 322.441406 239.410156 322.875 239.5 323.320312 C 239.59375 323.765625 239.640625 324.214844 239.640625 324.667969 Z M 239.640625 594.195312 " fill-opacity="1" fill-rule="nonzero"/><path fill="#000000" d="M 328.035156 304.808594 C 327.386719 304.8125 326.738281 304.84375 326.089844 304.90625 C 325.441406 304.972656 324.800781 305.066406 324.164062 305.195312 C 323.523438 305.324219 322.894531 305.480469 322.273438 305.671875 C 321.652344 305.859375 321.039062 306.078125 320.4375 306.328125 C 319.839844 306.578125 319.25 306.855469 318.679688 307.160156 C 318.105469 307.46875 317.546875 307.800781 317.007812 308.164062 C 316.46875 308.527344 315.945312 308.914062 315.441406 309.324219 C 314.941406 309.738281 314.460938 310.171875 314 310.632812 C 313.539062 311.09375 313.101562 311.574219 312.691406 312.078125 C 312.277344 312.578125 311.890625 313.101562 311.53125 313.640625 C 311.167969 314.183594 310.835938 314.738281 310.527344 315.3125 C 310.222656 315.886719 309.941406 316.472656 309.695312 317.074219 C 309.445312 317.675781 309.226562 318.285156 309.035156 318.90625 C 308.847656 319.53125 308.6875 320.160156 308.5625 320.796875 C 308.433594 321.433594 308.339844 322.078125 308.273438 322.722656 C 308.210938 323.371094 308.175781 324.019531 308.175781 324.667969 L 308.175781 594.195312 C 308.175781 594.84375 308.210938 595.492188 308.273438 596.140625 C 308.339844 596.789062 308.433594 597.429688 308.5625 598.066406 C 308.6875 598.703125 308.847656 599.335938 309.035156 599.957031 C 309.226562 600.578125 309.445312 601.1875 309.695312 601.789062 C 309.941406 602.390625 310.21875 602.976562 310.527344 603.550781 C 310.835938 604.121094 311.167969 604.679688 311.53125 605.21875 C 311.890625 605.761719 312.277344 606.28125 312.691406 606.785156 C 313.105469 607.285156 313.539062 607.765625 314 608.226562 C 314.460938 608.683594 314.941406 609.121094 315.445312 609.535156 C 315.945312 609.945312 316.46875 610.332031 317.007812 610.691406 C 317.550781 611.054688 318.105469 611.386719 318.679688 611.695312 C 319.253906 612 319.839844 612.277344 320.441406 612.527344 C 321.039062 612.773438 321.652344 612.992188 322.273438 613.179688 C 322.894531 613.371094 323.527344 613.527344 324.164062 613.65625 C 324.800781 613.78125 325.441406 613.875 326.089844 613.941406 C 326.738281 614.003906 327.386719 614.035156 328.035156 614.035156 C 328.683594 614.035156 329.332031 614.003906 329.980469 613.941406 C 330.628906 613.875 331.269531 613.78125 331.90625 613.65625 C 332.542969 613.527344 333.175781 613.371094 333.796875 613.179688 C 334.417969 612.992188 335.03125 612.773438 335.628906 612.527344 C 336.230469 612.277344 336.816406 612 337.390625 611.695312 C 337.964844 611.386719 338.523438 611.054688 339.0625 610.691406 C 339.601562 610.332031 340.125 609.945312 340.628906 609.53125 C 341.128906 609.121094 341.609375 608.683594 342.070312 608.226562 C 342.53125 607.765625 342.96875 607.285156 343.378906 606.785156 C 343.792969 606.28125 344.179688 605.761719 344.539062 605.21875 C 344.902344 604.679688 345.238281 604.121094 345.542969 603.550781 C 345.851562 602.976562 346.128906 602.390625 346.378906 601.789062 C 346.625 601.1875 346.84375 600.578125 347.035156 599.957031 C 347.222656 599.335938 347.382812 598.703125 347.507812 598.066406 C 347.636719 597.429688 347.734375 596.789062 347.796875 596.140625 C 347.863281 595.492188 347.894531 594.84375 347.894531 594.195312 L 347.894531 324.667969 C 347.894531 324.019531 347.859375 323.371094 347.796875 322.722656 C 347.730469 322.078125 347.636719 321.433594 347.507812 320.796875 C 347.382812 320.160156 347.222656 319.527344 347.035156 318.90625 C 346.84375 318.285156 346.625 317.671875 346.375 317.074219 C 346.128906 316.472656 345.847656 315.886719 345.542969 315.3125 C 345.234375 314.738281 344.902344 314.183594 344.539062 313.640625 C 344.179688 313.101562 343.792969 312.578125 343.378906 312.078125 C 342.96875 311.574219 342.53125 311.09375 342.070312 310.632812 C 341.609375 310.171875 341.128906 309.738281 340.628906 309.324219 C 340.125 308.914062 339.601562 308.523438 339.0625 308.164062 C 338.523438 307.800781 337.964844 307.46875 337.390625 307.160156 C 336.820312 306.855469 336.230469 306.578125 335.632812 306.328125 C 335.03125 306.078125 334.417969 305.859375 333.796875 305.671875 C 333.175781 305.480469 332.546875 305.324219 331.90625 305.195312 C 331.269531 305.066406 330.628906 304.972656 329.980469 304.90625 C 329.335938 304.84375 328.6875 304.8125 328.035156 304.808594 Z M 334.988281 594.195312 C 334.988281 594.652344 334.945312 595.105469 334.855469 595.550781 C 334.765625 596 334.632812 596.433594 334.460938 596.855469 C 334.285156 597.277344 334.070312 597.679688 333.816406 598.058594 C 333.5625 598.4375 333.273438 598.789062 332.953125 599.109375 C 332.628906 599.433594 332.277344 599.722656 331.898438 599.976562 C 331.519531 600.230469 331.117188 600.445312 330.695312 600.617188 C 330.273438 600.792969 329.839844 600.925781 329.394531 601.015625 C 328.945312 601.101562 328.492188 601.148438 328.035156 601.148438 C 327.578125 601.148438 327.128906 601.101562 326.679688 601.015625 C 326.234375 600.925781 325.796875 600.792969 325.375 600.617188 C 324.953125 600.445312 324.554688 600.230469 324.175781 599.976562 C 323.792969 599.722656 323.445312 599.433594 323.121094 599.109375 C 322.796875 598.789062 322.511719 598.4375 322.257812 598.058594 C 322.003906 597.679688 321.789062 597.277344 321.613281 596.855469 C 321.4375 596.433594 321.308594 596 321.21875 595.550781 C 321.128906 595.105469 321.085938 594.652344 321.085938 594.195312 L 321.085938 324.667969 C 321.085938 324.210938 321.128906 323.761719 321.21875 323.3125 C 321.308594 322.863281 321.4375 322.429688 321.613281 322.007812 C 321.789062 321.585938 322.003906 321.1875 322.257812 320.808594 C 322.511719 320.425781 322.796875 320.074219 323.121094 319.753906 C 323.445312 319.429688 323.792969 319.140625 324.175781 318.890625 C 324.554688 318.636719 324.953125 318.421875 325.375 318.246094 C 325.796875 318.070312 326.234375 317.941406 326.679688 317.851562 C 327.128906 317.761719 327.578125 317.71875 328.035156 317.71875 C 328.492188 317.71875 328.945312 317.761719 329.394531 317.851562 C 329.839844 317.941406 330.273438 318.070312 330.695312 318.246094 C 331.117188 318.421875 331.519531 318.636719 331.898438 318.890625 C 332.277344 319.140625 332.628906 319.429688 332.953125 319.753906 C 333.273438 320.074219 333.5625 320.425781 333.816406 320.808594 C 334.070312 321.1875 334.285156 321.585938 334.460938 322.007812 C 334.632812 322.429688 334.765625 322.863281 334.855469 323.3125 C 334.945312 323.761719 334.988281 324.210938 334.988281 324.667969 Z M 334.988281 594.195312 " fill-opacity="1" fill-rule="nonzero"/><g clip-path="url(#745bb062d7)"><path fill="#000000" d="M 616.046875 434.660156 C 573.527344 434.660156 532.957031 421.765625 498.492188 397.339844 L 498.492188 280.8125 C 498.492188 255.734375 478.09375 235.335938 453.019531 235.335938 L 429.832031 235.335938 L 429.832031 57.472656 C 429.832031 56.625 429.789062 55.777344 429.703125 54.929688 C 429.621094 54.085938 429.496094 53.246094 429.328125 52.414062 C 429.160156 51.578125 428.957031 50.753906 428.707031 49.941406 C 428.460938 49.128906 428.175781 48.332031 427.847656 47.546875 C 427.523438 46.761719 427.160156 45.992188 426.757812 45.242188 C 426.359375 44.496094 425.921875 43.765625 425.449219 43.058594 C 424.976562 42.351562 424.46875 41.671875 423.929688 41.015625 C 423.390625 40.359375 422.820312 39.730469 422.222656 39.128906 C 421.621094 38.527344 420.992188 37.957031 420.335938 37.417969 C 419.675781 36.878906 418.996094 36.371094 418.289062 35.898438 C 417.582031 35.429688 416.855469 34.992188 416.105469 34.589844 C 415.355469 34.1875 414.589844 33.824219 413.804688 33.5 C 413.019531 33.175781 412.21875 32.886719 411.40625 32.640625 C 410.59375 32.394531 409.769531 32.1875 408.9375 32.019531 C 408.101562 31.855469 407.265625 31.726562 406.417969 31.644531 C 405.574219 31.558594 404.726562 31.515625 403.875 31.515625 L 384.011719 31.515625 C 383.988281 30.894531 383.9375 30.273438 383.855469 29.660156 C 383.773438 29.042969 383.660156 28.429688 383.519531 27.824219 C 383.378906 27.21875 383.207031 26.621094 383.011719 26.03125 C 382.8125 25.441406 382.585938 24.859375 382.332031 24.292969 C 382.078125 23.722656 381.796875 23.167969 381.492188 22.628906 C 381.183594 22.085938 380.851562 21.5625 380.496094 21.050781 C 380.136719 20.542969 379.757812 20.050781 379.351562 19.578125 C 378.949219 19.105469 378.519531 18.652344 378.074219 18.222656 C 377.625 17.789062 377.15625 17.378906 376.671875 16.992188 C 376.183594 16.605469 375.679688 16.242188 375.15625 15.902344 C 374.636719 15.5625 374.097656 15.25 373.546875 14.960938 C 372.996094 14.675781 372.429688 14.414062 371.851562 14.179688 C 371.277344 13.949219 370.691406 13.742188 370.09375 13.566406 C 369.496094 13.386719 368.894531 13.242188 368.28125 13.121094 C 367.671875 13 367.054688 12.910156 366.4375 12.851562 C 365.816406 12.792969 365.195312 12.761719 364.574219 12.761719 L 291.496094 12.761719 C 290.875 12.761719 290.253906 12.792969 289.636719 12.851562 C 289.015625 12.910156 288.402344 13 287.789062 13.121094 C 287.179688 13.242188 286.574219 13.386719 285.980469 13.566406 C 285.382812 13.742188 284.796875 13.949219 284.21875 14.179688 C 283.640625 14.414062 283.078125 14.675781 282.527344 14.960938 C 281.972656 15.25 281.4375 15.5625 280.914062 15.902344 C 280.394531 16.242188 279.886719 16.605469 279.402344 16.992188 C 278.914062 17.378906 278.445312 17.789062 278 18.222656 C 277.550781 18.652344 277.125 19.105469 276.71875 19.578125 C 276.316406 20.050781 275.933594 20.542969 275.578125 21.050781 C 275.21875 21.5625 274.886719 22.085938 274.582031 22.628906 C 274.273438 23.167969 273.992188 23.722656 273.738281 24.292969 C 273.484375 24.859375 273.261719 25.441406 273.0625 26.03125 C 272.863281 26.621094 272.695312 27.21875 272.550781 27.824219 C 272.410156 28.429688 272.300781 29.042969 272.21875 29.660156 C 272.136719 30.273438 272.082031 30.894531 272.058594 31.515625 L 252.199219 31.515625 C 251.347656 31.515625 250.5 31.558594 249.652344 31.644531 C 248.808594 31.726562 247.96875 31.855469 247.136719 32.019531 C 246.300781 32.1875 245.480469 32.394531 244.664062 32.640625 C 243.851562 32.886719 243.054688 33.175781 242.269531 33.5 C 241.484375 33.824219 240.714844 34.1875 239.96875 34.589844 C 239.21875 34.992188 238.488281 35.429688 237.78125 35.898438 C 237.078125 36.371094 236.394531 36.878906 235.738281 37.417969 C 235.082031 37.957031 234.453125 38.527344 233.851562 39.128906 C 233.25 39.730469 232.679688 40.359375 232.140625 41.015625 C 231.601562 41.671875 231.097656 42.351562 230.625 43.058594 C 230.152344 43.765625 229.714844 44.496094 229.3125 45.242188 C 228.914062 45.992188 228.550781 46.761719 228.222656 47.546875 C 227.898438 48.332031 227.613281 49.128906 227.363281 49.941406 C 227.117188 50.753906 226.910156 51.578125 226.742188 52.414062 C 226.578125 53.246094 226.453125 54.085938 226.367188 54.929688 C 226.285156 55.777344 226.242188 56.625 226.238281 57.472656 L 226.238281 235.332031 L 203.054688 235.332031 C 177.976562 235.332031 157.578125 255.734375 157.578125 280.8125 L 157.578125 638.054688 C 157.578125 663.132812 177.976562 683.53125 203.054688 683.53125 L 218.792969 683.53125 C 218.222656 684.3125 217.6875 685.117188 217.1875 685.945312 C 216.6875 686.773438 216.230469 687.625 215.808594 688.496094 C 215.390625 689.367188 215.011719 690.257812 214.671875 691.164062 C 214.332031 692.070312 214.039062 692.988281 213.78125 693.921875 C 213.527344 694.855469 213.320312 695.796875 213.152344 696.75 C 212.984375 697.703125 212.859375 698.664062 212.78125 699.625 C 212.703125 700.589844 212.667969 701.554688 212.675781 702.523438 C 212.6875 703.492188 212.738281 704.457031 212.839844 705.417969 C 212.9375 706.378906 213.078125 707.335938 213.265625 708.285156 C 213.449219 709.234375 213.679688 710.175781 213.953125 711.101562 C 214.222656 712.03125 214.539062 712.945312 214.894531 713.84375 C 215.25 714.742188 215.648438 715.625 216.082031 716.488281 C 216.519531 717.351562 216.996094 718.191406 217.511719 719.011719 C 218.027344 719.828125 218.578125 720.625 219.164062 721.390625 C 219.75 722.160156 220.371094 722.902344 221.027344 723.613281 C 221.683594 724.324219 222.371094 725.003906 223.089844 725.652344 C 223.804688 726.300781 224.550781 726.914062 225.328125 727.496094 C 226.101562 728.074219 226.898438 728.617188 227.722656 729.125 C 228.546875 729.628906 229.394531 730.097656 230.261719 730.527344 C 231.128906 730.957031 232.011719 731.34375 232.917969 731.691406 C 233.820312 732.039062 234.734375 732.34375 235.667969 732.605469 C 236.597656 732.871094 237.539062 733.089844 238.488281 733.265625 C 239.441406 733.441406 240.398438 733.574219 241.359375 733.664062 C 242.324219 733.753906 243.289062 733.796875 244.257812 733.796875 C 245.222656 733.796875 246.191406 733.753906 247.152344 733.664062 C 248.117188 733.574219 249.074219 733.441406 250.023438 733.265625 C 250.976562 733.089844 251.917969 732.871094 252.847656 732.605469 C 253.777344 732.34375 254.695312 732.039062 255.597656 731.691406 C 256.5 731.34375 257.386719 730.957031 258.253906 730.527344 C 259.121094 730.097656 259.964844 729.628906 260.789062 729.125 C 261.613281 728.617188 262.414062 728.074219 263.1875 727.496094 C 263.960938 726.914062 264.707031 726.300781 265.425781 725.652344 C 266.144531 725.003906 266.832031 724.324219 267.484375 723.613281 C 268.140625 722.902344 268.761719 722.160156 269.351562 721.390625 C 269.9375 720.625 270.488281 719.828125 271.003906 719.011719 C 271.515625 718.191406 271.992188 717.351562 272.429688 716.488281 C 272.867188 715.625 273.265625 714.742188 273.621094 713.84375 C 273.976562 712.945312 274.289062 712.03125 274.5625 711.101562 C 274.835938 710.175781 275.0625 709.234375 275.25 708.285156 C 275.4375 707.335938 275.578125 706.378906 275.675781 705.417969 C 275.773438 704.457031 275.828125 703.492188 275.835938 702.523438 C 275.847656 701.554688 275.8125 700.589844 275.734375 699.625 C 275.652344 698.664062 275.53125 697.703125 275.363281 696.75 C 275.195312 695.796875 274.984375 694.855469 274.730469 693.921875 C 274.476562 692.988281 274.179688 692.070312 273.84375 691.164062 C 273.503906 690.257812 273.125 689.367188 272.703125 688.496094 C 272.285156 687.625 271.824219 686.773438 271.324219 685.945312 C 270.828125 685.117188 270.292969 684.3125 269.71875 683.53125 L 386.347656 683.53125 C 385.777344 684.3125 385.242188 685.117188 384.742188 685.945312 C 384.242188 686.773438 383.785156 687.625 383.363281 688.496094 C 382.945312 689.367188 382.566406 690.257812 382.226562 691.164062 C 381.886719 692.070312 381.589844 692.988281 381.335938 693.921875 C 381.082031 694.855469 380.871094 695.796875 380.707031 696.75 C 380.539062 697.703125 380.414062 698.664062 380.335938 699.625 C 380.257812 700.589844 380.222656 701.554688 380.230469 702.523438 C 380.242188 703.492188 380.292969 704.457031 380.390625 705.417969 C 380.492188 706.378906 380.632812 707.335938 380.816406 708.285156 C 381.003906 709.234375 381.234375 710.175781 381.503906 711.101562 C 381.777344 712.03125 382.09375 712.945312 382.449219 713.84375 C 382.804688 714.742188 383.199219 715.625 383.636719 716.488281 C 384.074219 717.351562 384.550781 718.191406 385.066406 719.011719 C 385.578125 719.828125 386.132812 720.625 386.71875 721.390625 C 387.304688 722.160156 387.925781 722.902344 388.582031 723.613281 C 389.238281 724.324219 389.925781 725.003906 390.640625 725.652344 C 391.359375 726.300781 392.105469 726.914062 392.878906 727.496094 C 393.65625 728.074219 394.453125 728.617188 395.277344 729.125 C 396.101562 729.628906 396.949219 730.097656 397.816406 730.527344 C 398.683594 730.957031 399.566406 731.34375 400.46875 731.691406 C 401.375 732.039062 402.289062 732.34375 403.222656 732.605469 C 404.152344 732.871094 405.09375 733.089844 406.042969 733.265625 C 406.996094 733.441406 407.953125 733.574219 408.914062 733.664062 C 409.878906 733.753906 410.84375 733.796875 411.8125 733.796875 C 412.777344 733.796875 413.742188 733.753906 414.707031 733.664062 C 415.671875 733.574219 416.628906 733.441406 417.578125 733.265625 C 418.53125 733.089844 419.46875 732.871094 420.402344 732.605469 C 421.332031 732.34375 422.25 732.039062 423.152344 731.691406 C 424.054688 731.34375 424.941406 730.957031 425.808594 730.527344 C 426.675781 730.097656 427.519531 729.628906 428.34375 729.125 C 429.167969 728.617188 429.96875 728.074219 430.742188 727.496094 C 431.515625 726.914062 432.261719 726.300781 432.980469 725.652344 C 433.699219 725.003906 434.382812 724.324219 435.039062 723.613281 C 435.695312 722.902344 436.316406 722.160156 436.902344 721.390625 C 437.492188 720.625 438.042969 719.828125 438.558594 719.011719 C 439.070312 718.191406 439.546875 717.351562 439.984375 716.488281 C 440.421875 715.625 440.816406 714.742188 441.175781 713.84375 C 441.53125 712.945312 441.84375 712.03125 442.117188 711.101562 C 442.390625 710.175781 442.617188 709.234375 442.804688 708.285156 C 442.988281 707.335938 443.132812 706.378906 443.230469 705.417969 C 443.328125 704.457031 443.382812 703.492188 443.390625 702.523438 C 443.402344 701.554688 443.367188 700.589844 443.285156 699.625 C 443.207031 698.664062 443.085938 697.703125 442.917969 696.75 C 442.75 695.796875 442.539062 694.855469 442.285156 693.921875 C 442.03125 692.988281 441.734375 692.070312 441.394531 691.164062 C 441.058594 690.257812 440.679688 689.367188 440.257812 688.496094 C 439.835938 687.625 439.378906 686.773438 438.878906 685.945312 C 438.382812 685.117188 437.847656 684.3125 437.273438 683.53125 L 453.015625 683.53125 C 457.898438 683.542969 462.660156 682.773438 467.292969 681.230469 C 474.507812 685.273438 481.933594 688.871094 489.578125 692.023438 L 492.039062 693.035156 L 494.496094 692.023438 C 499.195312 690.089844 503.820312 687.984375 508.363281 685.707031 C 512.910156 683.433594 517.363281 680.992188 521.730469 678.386719 C 526.097656 675.78125 530.359375 673.019531 534.519531 670.101562 C 538.683594 667.179688 542.730469 664.113281 546.664062 660.894531 C 550.601562 657.675781 554.410156 654.316406 558.097656 650.816406 C 561.785156 647.316406 565.339844 643.6875 568.757812 639.925781 C 572.175781 636.164062 575.453125 632.28125 578.585938 628.277344 C 581.71875 624.273438 584.699219 620.160156 587.53125 615.9375 C 590.359375 611.714844 593.027344 607.394531 595.539062 602.972656 C 598.050781 598.554688 600.394531 594.046875 602.570312 589.453125 C 604.75 584.859375 606.753906 580.191406 608.589844 575.449219 C 610.421875 570.710938 612.078125 565.90625 613.558594 561.042969 C 615.035156 556.179688 616.335938 551.269531 617.449219 546.308594 C 618.566406 541.351562 619.5 536.355469 620.25 531.328125 C 620.996094 526.300781 621.558594 521.25 621.933594 516.179688 C 622.308594 511.113281 622.5 506.035156 622.5 500.953125 L 622.5 434.660156 Z M 291.496094 25.667969 L 364.574219 25.667969 C 365.003906 25.667969 365.429688 25.710938 365.851562 25.792969 C 366.269531 25.878906 366.679688 26.003906 367.078125 26.167969 C 367.476562 26.332031 367.851562 26.535156 368.210938 26.773438 C 368.566406 27.011719 368.898438 27.285156 369.203125 27.589844 C 369.503906 27.890625 369.777344 28.222656 370.015625 28.578125 C 370.253906 28.9375 370.457031 29.316406 370.621094 29.710938 C 370.785156 30.109375 370.910156 30.519531 370.996094 30.941406 C 371.078125 31.359375 371.121094 31.785156 371.121094 32.214844 L 371.121094 42.003906 C 371.121094 42.433594 371.078125 42.859375 370.996094 43.28125 C 370.910156 43.699219 370.785156 44.109375 370.621094 44.507812 C 370.457031 44.90625 370.253906 45.28125 370.015625 45.640625 C 369.777344 45.996094 369.503906 46.328125 369.203125 46.632812 C 368.898438 46.933594 368.566406 47.207031 368.210938 47.445312 C 367.851562 47.683594 367.476562 47.886719 367.078125 48.050781 C 366.679688 48.214844 366.269531 48.339844 365.851562 48.425781 C 365.429688 48.507812 365.003906 48.550781 364.574219 48.550781 L 291.496094 48.550781 C 291.066406 48.550781 290.640625 48.507812 290.21875 48.425781 C 289.800781 48.339844 289.390625 48.214844 288.992188 48.050781 C 288.597656 47.886719 288.21875 47.683594 287.863281 47.445312 C 287.503906 47.207031 287.171875 46.933594 286.871094 46.628906 C 286.566406 46.328125 286.292969 45.996094 286.054688 45.636719 C 285.816406 45.28125 285.613281 44.902344 285.449219 44.507812 C 285.285156 44.109375 285.160156 43.699219 285.078125 43.277344 C 284.992188 42.855469 284.949219 42.429688 284.949219 42 L 284.949219 32.214844 C 284.949219 31.785156 284.992188 31.359375 285.078125 30.9375 C 285.160156 30.515625 285.285156 30.109375 285.449219 29.710938 C 285.617188 29.3125 285.816406 28.9375 286.054688 28.578125 C 286.296875 28.222656 286.566406 27.890625 286.871094 27.589844 C 287.175781 27.285156 287.503906 27.011719 287.863281 26.773438 C 288.21875 26.535156 288.597656 26.332031 288.992188 26.167969 C 289.390625 26.003906 289.800781 25.878906 290.222656 25.792969 C 290.640625 25.710938 291.066406 25.667969 291.496094 25.667969 Z M 239.148438 57.472656 C 239.148438 56.617188 239.234375 55.769531 239.402344 54.929688 C 239.570312 54.089844 239.816406 53.273438 240.144531 52.484375 C 240.472656 51.691406 240.875 50.941406 241.351562 50.226562 C 241.828125 49.515625 242.371094 48.855469 242.976562 48.25 C 243.582031 47.644531 244.238281 47.105469 244.953125 46.628906 C 245.664062 46.152344 246.414062 45.75 247.207031 45.421875 C 248 45.09375 248.8125 44.84375 249.652344 44.675781 C 250.492188 44.507812 251.34375 44.425781 252.199219 44.425781 L 272.191406 44.425781 C 272.207031 44.523438 272.222656 44.617188 272.238281 44.714844 C 272.253906 44.855469 272.277344 44.992188 272.296875 45.128906 C 272.324219 45.304688 272.355469 45.476562 272.390625 45.648438 C 272.414062 45.78125 272.441406 45.917969 272.46875 46.050781 C 272.503906 46.226562 272.546875 46.394531 272.589844 46.566406 C 272.621094 46.699219 272.648438 46.828125 272.683594 46.957031 C 272.730469 47.132812 272.78125 47.308594 272.835938 47.484375 C 272.871094 47.605469 272.902344 47.726562 272.941406 47.847656 C 273 48.035156 273.066406 48.222656 273.132812 48.410156 C 273.167969 48.511719 273.199219 48.613281 273.238281 48.714844 C 273.34375 49 273.453125 49.28125 273.570312 49.558594 C 273.597656 49.621094 273.628906 49.683594 273.65625 49.746094 C 273.75 49.960938 273.84375 50.175781 273.945312 50.386719 C 274 50.496094 274.054688 50.601562 274.109375 50.710938 C 274.191406 50.875 274.273438 51.039062 274.359375 51.199219 C 274.421875 51.3125 274.488281 51.429688 274.554688 51.542969 C 274.636719 51.691406 274.71875 51.839844 274.804688 51.984375 C 274.878906 52.101562 274.953125 52.21875 275.023438 52.335938 C 275.113281 52.472656 275.199219 52.613281 275.289062 52.746094 C 275.367188 52.863281 275.449219 52.980469 275.527344 53.09375 C 275.621094 53.226562 275.710938 53.359375 275.808594 53.488281 C 275.890625 53.601562 275.976562 53.714844 276.0625 53.824219 C 276.160156 53.953125 276.257812 54.078125 276.359375 54.203125 C 276.449219 54.3125 276.539062 54.421875 276.628906 54.527344 C 276.730469 54.652344 276.835938 54.773438 276.945312 54.890625 C 277.035156 54.996094 277.128906 55.101562 277.226562 55.203125 C 277.335938 55.324219 277.445312 55.4375 277.558594 55.554688 C 277.65625 55.652344 277.753906 55.753906 277.851562 55.851562 C 277.96875 55.964844 278.085938 56.078125 278.207031 56.191406 C 278.304688 56.285156 278.40625 56.378906 278.507812 56.46875 C 278.632812 56.582031 278.761719 56.691406 278.890625 56.800781 C 278.992188 56.886719 279.089844 56.972656 279.191406 57.054688 C 279.332031 57.171875 279.480469 57.285156 279.628906 57.398438 C 279.71875 57.46875 279.808594 57.542969 279.898438 57.609375 C 280.121094 57.777344 280.347656 57.9375 280.578125 58.09375 C 280.640625 58.136719 280.703125 58.175781 280.765625 58.21875 C 280.96875 58.351562 281.175781 58.488281 281.386719 58.617188 C 281.480469 58.675781 281.582031 58.730469 281.679688 58.789062 C 281.84375 58.882812 282.003906 58.980469 282.167969 59.070312 C 282.28125 59.128906 282.394531 59.191406 282.507812 59.246094 C 282.664062 59.328125 282.816406 59.410156 282.976562 59.488281 C 283.097656 59.546875 283.214844 59.601562 283.335938 59.65625 C 283.492188 59.730469 283.648438 59.800781 283.804688 59.867188 C 283.929688 59.921875 284.054688 59.972656 284.179688 60.023438 C 284.339844 60.085938 284.496094 60.148438 284.652344 60.210938 C 284.78125 60.257812 284.910156 60.304688 285.042969 60.351562 C 285.203125 60.40625 285.363281 60.460938 285.523438 60.515625 C 285.65625 60.558594 285.785156 60.597656 285.917969 60.636719 C 286.082031 60.6875 286.246094 60.734375 286.414062 60.777344 C 286.546875 60.8125 286.679688 60.851562 286.8125 60.882812 C 286.980469 60.925781 287.152344 60.964844 287.324219 61 C 287.457031 61.03125 287.589844 61.0625 287.722656 61.085938 C 287.898438 61.121094 288.078125 61.152344 288.253906 61.179688 C 288.386719 61.203125 288.515625 61.226562 288.648438 61.246094 C 288.835938 61.273438 289.023438 61.296875 289.214844 61.320312 C 289.335938 61.332031 289.460938 61.347656 289.585938 61.363281 C 289.796875 61.382812 290.007812 61.398438 290.21875 61.410156 C 290.324219 61.417969 290.429688 61.429688 290.539062 61.433594 C 290.859375 61.449219 291.179688 61.457031 291.5 61.457031 L 364.578125 61.457031 C 364.898438 61.457031 365.21875 61.449219 365.539062 61.433594 C 365.644531 61.429688 365.75 61.417969 365.859375 61.410156 C 366.070312 61.398438 366.28125 61.382812 366.492188 61.363281 C 366.617188 61.351562 366.742188 61.332031 366.863281 61.320312 C 367.054688 61.296875 367.242188 61.273438 367.429688 61.246094 C 367.5625 61.226562 367.691406 61.203125 367.824219 61.179688 C 368 61.152344 368.179688 61.121094 368.355469 61.085938 C 368.488281 61.058594 368.621094 61.03125 368.753906 61 C 368.925781 60.964844 369.09375 60.925781 369.265625 60.882812 C 369.398438 60.851562 369.53125 60.8125 369.664062 60.777344 C 369.828125 60.734375 369.996094 60.6875 370.160156 60.636719 C 370.289062 60.597656 370.421875 60.554688 370.554688 60.515625 C 370.714844 60.460938 370.875 60.40625 371.035156 60.351562 C 371.164062 60.304688 371.296875 60.257812 371.421875 60.210938 C 371.582031 60.148438 371.738281 60.085938 371.894531 60.023438 C 372.023438 59.972656 372.148438 59.921875 372.273438 59.867188 C 372.429688 59.800781 372.585938 59.726562 372.742188 59.65625 C 372.859375 59.601562 372.984375 59.546875 373.101562 59.488281 C 373.257812 59.410156 373.414062 59.328125 373.570312 59.246094 C 373.679688 59.1875 373.796875 59.128906 373.90625 59.070312 C 374.070312 58.980469 374.234375 58.882812 374.394531 58.789062 C 374.492188 58.730469 374.59375 58.675781 374.691406 58.617188 C 374.902344 58.488281 375.105469 58.351562 375.3125 58.21875 C 375.375 58.175781 375.4375 58.136719 375.496094 58.09375 C 375.726562 57.9375 375.953125 57.777344 376.179688 57.609375 C 376.269531 57.542969 376.359375 57.46875 376.449219 57.398438 C 376.597656 57.285156 376.742188 57.171875 376.886719 57.054688 C 376.988281 56.972656 377.085938 56.886719 377.183594 56.800781 C 377.3125 56.691406 377.441406 56.582031 377.570312 56.46875 C 377.671875 56.378906 377.769531 56.285156 377.871094 56.191406 C 377.988281 56.078125 378.109375 55.964844 378.226562 55.851562 C 378.324219 55.753906 378.421875 55.652344 378.519531 55.554688 C 378.628906 55.4375 378.742188 55.324219 378.851562 55.203125 C 378.945312 55.101562 379.039062 54.996094 379.132812 54.890625 C 379.238281 54.773438 379.34375 54.652344 379.449219 54.527344 C 379.539062 54.421875 379.628906 54.3125 379.71875 54.203125 C 379.816406 54.078125 379.917969 53.953125 380.015625 53.824219 C 380.101562 53.714844 380.183594 53.601562 380.269531 53.488281 C 380.363281 53.359375 380.457031 53.226562 380.550781 53.09375 C 380.628906 52.980469 380.710938 52.863281 380.785156 52.746094 C 380.875 52.613281 380.964844 52.472656 381.050781 52.335938 C 381.125 52.21875 381.199219 52.101562 381.269531 51.984375 C 381.355469 51.839844 381.441406 51.691406 381.523438 51.542969 C 381.589844 51.429688 381.65625 51.3125 381.71875 51.199219 C 381.804688 51.039062 381.886719 50.875 381.96875 50.710938 C 382.023438 50.601562 382.078125 50.496094 382.128906 50.386719 C 382.230469 50.179688 382.328125 49.960938 382.421875 49.746094 C 382.449219 49.683594 382.480469 49.621094 382.507812 49.558594 C 382.625 49.28125 382.734375 49 382.839844 48.714844 C 382.875 48.613281 382.910156 48.511719 382.945312 48.410156 C 383.011719 48.222656 383.074219 48.035156 383.136719 47.847656 C 383.171875 47.726562 383.207031 47.605469 383.242188 47.484375 C 383.292969 47.308594 383.34375 47.132812 383.394531 46.957031 C 383.425781 46.828125 383.457031 46.699219 383.488281 46.566406 C 383.53125 46.394531 383.570312 46.226562 383.609375 46.050781 C 383.636719 45.917969 383.660156 45.78125 383.6875 45.648438 C 383.71875 45.476562 383.75 45.304688 383.78125 45.128906 C 383.800781 44.992188 383.820312 44.855469 383.839844 44.714844 C 383.855469 44.617188 383.871094 44.523438 383.882812 44.425781 L 403.878906 44.425781 C 404.734375 44.425781 405.585938 44.507812 406.425781 44.675781 C 407.265625 44.84375 408.078125 45.09375 408.871094 45.421875 C 409.664062 45.75 410.414062 46.152344 411.125 46.628906 C 411.839844 47.105469 412.496094 47.644531 413.101562 48.25 C 413.707031 48.855469 414.25 49.515625 414.726562 50.226562 C 415.203125 50.941406 415.605469 51.691406 415.933594 52.484375 C 416.261719 53.273438 416.507812 54.089844 416.675781 54.929688 C 416.84375 55.769531 416.929688 56.617188 416.929688 57.472656 L 416.929688 235.332031 L 239.148438 235.332031 Z M 262.933594 702.191406 C 262.933594 702.800781 262.90625 703.40625 262.847656 704.011719 C 262.785156 704.613281 262.699219 705.214844 262.582031 705.8125 C 262.464844 706.40625 262.316406 706.996094 262.140625 707.578125 C 261.96875 708.160156 261.765625 708.730469 261.535156 709.292969 C 261.304688 709.855469 261.046875 710.402344 260.761719 710.941406 C 260.476562 711.476562 260.167969 712 259.832031 712.503906 C 259.496094 713.011719 259.136719 713.5 258.753906 713.972656 C 258.371094 714.445312 257.964844 714.894531 257.539062 715.328125 C 257.113281 715.757812 256.664062 716.167969 256.199219 716.558594 C 255.730469 716.945312 255.246094 717.3125 254.742188 717.652344 C 254.242188 717.992188 253.722656 718.308594 253.191406 718.597656 C 252.65625 718.890625 252.109375 719.152344 251.550781 719.390625 C 250.992188 719.628906 250.421875 719.835938 249.84375 720.019531 C 249.261719 720.199219 248.675781 720.355469 248.082031 720.476562 C 247.488281 720.601562 246.886719 720.695312 246.285156 720.761719 C 245.679688 720.828125 245.074219 720.863281 244.46875 720.871094 C 243.859375 720.878906 243.253906 720.855469 242.648438 720.804688 C 242.042969 720.75 241.441406 720.667969 240.84375 720.558594 C 240.246094 720.445312 239.65625 720.308594 239.074219 720.140625 C 238.492188 719.96875 237.917969 719.773438 237.351562 719.546875 C 236.789062 719.324219 236.234375 719.074219 235.695312 718.792969 C 235.15625 718.515625 234.632812 718.210938 234.121094 717.882812 C 233.609375 717.550781 233.117188 717.199219 232.644531 716.820312 C 232.167969 716.441406 231.710938 716.042969 231.273438 715.621094 C 230.839844 715.199219 230.421875 714.753906 230.03125 714.292969 C 229.636719 713.828125 229.265625 713.347656 228.921875 712.847656 C 228.574219 712.351562 228.253906 711.835938 227.957031 711.304688 C 227.660156 710.773438 227.390625 710.230469 227.148438 709.675781 C 226.902344 709.117188 226.6875 708.550781 226.5 707.972656 C 226.3125 707.394531 226.152344 706.8125 226.023438 706.21875 C 225.890625 705.625 225.789062 705.027344 225.71875 704.421875 C 225.644531 703.820312 225.601562 703.214844 225.589844 702.609375 C 225.574219 702 225.59375 701.394531 225.636719 700.789062 C 225.683594 700.183594 225.757812 699.582031 225.863281 698.984375 C 225.96875 698.382812 226.101562 697.792969 226.265625 697.207031 C 226.425781 696.621094 226.617188 696.046875 226.835938 695.480469 C 227.054688 694.914062 227.300781 694.359375 227.570312 693.816406 C 227.84375 693.273438 228.144531 692.742188 228.46875 692.230469 C 228.792969 691.714844 229.140625 691.21875 229.511719 690.742188 C 229.886719 690.261719 230.28125 689.800781 230.699219 689.359375 C 231.117188 688.917969 231.554688 688.5 232.011719 688.101562 C 232.472656 687.703125 232.949219 687.328125 233.441406 686.976562 C 233.9375 686.621094 234.449219 686.296875 234.976562 685.992188 C 235.503906 685.691406 236.042969 685.417969 236.597656 685.167969 C 237.152344 684.917969 237.714844 684.695312 238.292969 684.503906 C 238.867188 684.308594 239.449219 684.144531 240.042969 684.003906 C 240.632812 683.867188 241.230469 683.761719 241.832031 683.679688 C 242.4375 683.601562 243.039062 683.554688 243.648438 683.53125 L 244.871094 683.53125 C 245.46875 683.554688 246.066406 683.601562 246.660156 683.679688 C 247.253906 683.757812 247.839844 683.863281 248.425781 683.996094 C 249.007812 684.132812 249.582031 684.292969 250.152344 684.480469 C 250.71875 684.671875 251.277344 684.886719 251.824219 685.128906 C 252.371094 685.371094 252.90625 685.640625 253.425781 685.9375 C 253.945312 686.230469 254.453125 686.546875 254.945312 686.890625 C 255.433594 687.234375 255.90625 687.597656 256.363281 687.988281 C 256.820312 688.375 257.253906 688.785156 257.671875 689.214844 C 258.085938 689.644531 258.480469 690.09375 258.855469 690.5625 C 259.226562 691.03125 259.578125 691.515625 259.90625 692.015625 C 260.230469 692.519531 260.53125 693.035156 260.808594 693.566406 C 261.085938 694.09375 261.339844 694.636719 261.5625 695.191406 C 261.789062 695.746094 261.984375 696.3125 262.15625 696.886719 C 262.328125 697.457031 262.46875 698.039062 262.585938 698.625 C 262.699219 699.214844 262.785156 699.804688 262.84375 700.402344 C 262.902344 700.996094 262.933594 701.59375 262.933594 702.191406 Z M 430.488281 702.191406 C 430.488281 702.800781 430.457031 703.40625 430.398438 704.011719 C 430.339844 704.613281 430.253906 705.214844 430.136719 705.8125 C 430.015625 706.40625 429.871094 706.996094 429.695312 707.578125 C 429.519531 708.160156 429.316406 708.730469 429.085938 709.292969 C 428.855469 709.855469 428.597656 710.402344 428.316406 710.941406 C 428.03125 711.476562 427.722656 712 427.386719 712.503906 C 427.050781 713.011719 426.691406 713.5 426.308594 713.972656 C 425.925781 714.445312 425.519531 714.894531 425.09375 715.328125 C 424.667969 715.757812 424.21875 716.167969 423.753906 716.558594 C 423.285156 716.945312 422.800781 717.3125 422.296875 717.652344 C 421.792969 717.992188 421.277344 718.308594 420.742188 718.597656 C 420.210938 718.890625 419.664062 719.152344 419.105469 719.390625 C 418.546875 719.628906 417.976562 719.835938 417.394531 720.019531 C 416.816406 720.199219 416.230469 720.351562 415.636719 720.476562 C 415.039062 720.601562 414.441406 720.695312 413.835938 720.761719 C 413.234375 720.828125 412.628906 720.863281 412.019531 720.871094 C 411.414062 720.878906 410.808594 720.855469 410.203125 720.804688 C 409.597656 720.75 408.996094 720.667969 408.398438 720.558594 C 407.800781 720.445312 407.210938 720.308594 406.628906 720.140625 C 406.042969 719.96875 405.46875 719.773438 404.90625 719.546875 C 404.339844 719.324219 403.789062 719.074219 403.25 718.792969 C 402.710938 718.515625 402.183594 718.210938 401.675781 717.882812 C 401.164062 717.550781 400.671875 717.199219 400.195312 716.820312 C 399.722656 716.441406 399.265625 716.042969 398.828125 715.621094 C 398.390625 715.199219 397.976562 714.753906 397.582031 714.292969 C 397.191406 713.828125 396.820312 713.347656 396.472656 712.847656 C 396.128906 712.351562 395.804688 711.835938 395.507812 711.304688 C 395.214844 710.773438 394.945312 710.230469 394.699219 709.675781 C 394.457031 709.117188 394.242188 708.550781 394.054688 707.972656 C 393.867188 707.394531 393.707031 706.8125 393.574219 706.21875 C 393.445312 705.625 393.34375 705.027344 393.269531 704.421875 C 393.199219 703.820312 393.15625 703.214844 393.144531 702.609375 C 393.128906 702 393.144531 701.394531 393.191406 700.789062 C 393.238281 700.183594 393.3125 699.582031 393.417969 698.984375 C 393.523438 698.382812 393.65625 697.792969 393.816406 697.207031 C 393.980469 696.621094 394.171875 696.046875 394.390625 695.480469 C 394.609375 694.914062 394.851562 694.359375 395.125 693.816406 C 395.398438 693.273438 395.695312 692.742188 396.019531 692.230469 C 396.34375 691.714844 396.695312 691.21875 397.066406 690.738281 C 397.4375 690.261719 397.835938 689.800781 398.25 689.359375 C 398.667969 688.917969 399.105469 688.5 399.566406 688.101562 C 400.023438 687.703125 400.5 687.328125 400.996094 686.976562 C 401.492188 686.621094 402.003906 686.296875 402.53125 685.992188 C 403.054688 685.691406 403.597656 685.417969 404.152344 685.167969 C 404.703125 684.917969 405.269531 684.695312 405.84375 684.503906 C 406.421875 684.308594 407.003906 684.140625 407.597656 684.003906 C 408.1875 683.867188 408.785156 683.761719 409.386719 683.679688 C 409.988281 683.601562 410.59375 683.554688 411.199219 683.53125 L 412.425781 683.53125 C 413.023438 683.554688 413.621094 683.601562 414.214844 683.679688 C 414.808594 683.757812 415.394531 683.863281 415.976562 683.996094 C 416.5625 684.132812 417.136719 684.292969 417.707031 684.480469 C 418.273438 684.671875 418.832031 684.886719 419.378906 685.128906 C 419.925781 685.371094 420.457031 685.640625 420.980469 685.9375 C 421.5 686.230469 422.007812 686.546875 422.496094 686.890625 C 422.988281 687.234375 423.460938 687.597656 423.917969 687.988281 C 424.371094 688.375 424.808594 688.785156 425.226562 689.214844 C 425.640625 689.644531 426.035156 690.09375 426.410156 690.5625 C 426.78125 691.03125 427.132812 691.515625 427.457031 692.015625 C 427.785156 692.519531 428.085938 693.035156 428.363281 693.5625 C 428.640625 694.09375 428.890625 694.636719 429.117188 695.191406 C 429.34375 695.746094 429.539062 696.3125 429.710938 696.886719 C 429.882812 697.457031 430.023438 698.039062 430.140625 698.625 C 430.253906 699.214844 430.339844 699.804688 430.398438 700.402344 C 430.457031 700.996094 430.484375 701.59375 430.488281 702.191406 Z M 412.761719 670.625 C 412.445312 670.617188 412.128906 670.609375 411.8125 670.609375 C 411.492188 670.609375 411.175781 670.617188 410.859375 670.625 L 245.207031 670.625 C 244.890625 670.617188 244.574219 670.609375 244.257812 670.609375 C 243.941406 670.609375 243.625 670.617188 243.308594 670.625 L 203.054688 670.625 C 201.988281 670.625 200.925781 670.570312 199.863281 670.464844 C 198.800781 670.359375 197.75 670.203125 196.703125 669.992188 C 195.65625 669.785156 194.625 669.523438 193.605469 669.214844 C 192.585938 668.90625 191.582031 668.546875 190.597656 668.136719 C 189.613281 667.726562 188.648438 667.273438 187.710938 666.769531 C 186.769531 666.265625 185.855469 665.71875 184.96875 665.125 C 184.082031 664.53125 183.226562 663.898438 182.402344 663.222656 C 181.578125 662.546875 180.789062 661.828125 180.035156 661.074219 C 179.28125 660.320312 178.566406 659.53125 177.890625 658.707031 C 177.214844 657.882812 176.578125 657.027344 175.984375 656.140625 C 175.394531 655.257812 174.84375 654.34375 174.34375 653.402344 C 173.839844 652.460938 173.382812 651.5 172.972656 650.515625 C 172.566406 649.53125 172.207031 648.527344 171.894531 647.507812 C 171.585938 646.488281 171.324219 645.453125 171.117188 644.40625 C 170.910156 643.363281 170.75 642.308594 170.644531 641.246094 C 170.539062 640.1875 170.488281 639.125 170.484375 638.058594 L 170.484375 280.8125 C 170.488281 279.746094 170.539062 278.679688 170.644531 277.621094 C 170.75 276.558594 170.910156 275.503906 171.117188 274.460938 C 171.328125 273.414062 171.585938 272.378906 171.894531 271.359375 C 172.207031 270.339844 172.566406 269.335938 172.976562 268.351562 C 173.382812 267.367188 173.839844 266.40625 174.34375 265.464844 C 174.84375 264.523438 175.394531 263.613281 175.984375 262.726562 C 176.578125 261.839844 177.214844 260.984375 177.890625 260.160156 C 178.566406 259.335938 179.28125 258.546875 180.035156 257.792969 C 180.789062 257.039062 181.578125 256.324219 182.402344 255.644531 C 183.226562 254.96875 184.082031 254.335938 184.96875 253.742188 C 185.855469 253.148438 186.769531 252.601562 187.710938 252.097656 C 188.648438 251.59375 189.613281 251.140625 190.597656 250.730469 C 191.582031 250.320312 192.585938 249.960938 193.605469 249.652344 C 194.625 249.34375 195.65625 249.082031 196.703125 248.875 C 197.75 248.664062 198.800781 248.507812 199.863281 248.402344 C 200.925781 248.296875 201.988281 248.242188 203.054688 248.242188 L 226.242188 248.242188 L 226.242188 248.246094 L 429.832031 248.246094 L 429.832031 248.242188 L 453.015625 248.242188 C 454.082031 248.242188 455.148438 248.296875 456.207031 248.402344 C 457.269531 248.507812 458.324219 248.664062 459.367188 248.875 C 460.414062 249.082031 461.445312 249.34375 462.46875 249.652344 C 463.488281 249.964844 464.488281 250.324219 465.476562 250.730469 C 466.460938 251.140625 467.421875 251.597656 468.363281 252.097656 C 469.300781 252.601562 470.214844 253.148438 471.101562 253.742188 C 471.988281 254.335938 472.84375 254.96875 473.667969 255.648438 C 474.492188 256.324219 475.28125 257.039062 476.035156 257.792969 C 476.789062 258.546875 477.503906 259.335938 478.179688 260.160156 C 478.859375 260.984375 479.492188 261.839844 480.085938 262.726562 C 480.679688 263.613281 481.226562 264.527344 481.730469 265.464844 C 482.230469 266.40625 482.6875 267.371094 483.097656 268.355469 C 483.503906 269.339844 483.863281 270.339844 484.175781 271.363281 C 484.484375 272.382812 484.746094 273.414062 484.953125 274.460938 C 485.164062 275.507812 485.320312 276.558594 485.425781 277.621094 C 485.53125 278.683594 485.585938 279.746094 485.585938 280.8125 L 485.585938 397.335938 C 485.496094 397.398438 485.410156 397.464844 485.320312 397.527344 C 485.066406 397.707031 484.808594 397.882812 484.550781 398.0625 C 483.847656 398.550781 483.140625 399.039062 482.433594 399.523438 C 482.109375 399.742188 481.785156 399.960938 481.460938 400.179688 C 480.785156 400.632812 480.109375 401.082031 479.429688 401.527344 C 479.121094 401.726562 478.816406 401.929688 478.507812 402.128906 C 477.648438 402.683594 476.789062 403.230469 475.921875 403.773438 C 475.804688 403.847656 475.6875 403.921875 475.570312 403.996094 C 474.589844 404.605469 473.601562 405.210938 472.613281 405.800781 C 472.324219 405.976562 472.035156 406.144531 471.746094 406.316406 C 471.03125 406.738281 470.316406 407.15625 469.601562 407.570312 C 469.25 407.773438 468.902344 407.972656 468.550781 408.171875 C 467.859375 408.566406 467.167969 408.953125 466.472656 409.335938 C 466.140625 409.519531 465.808594 409.707031 465.476562 409.886719 C 464.578125 410.378906 463.675781 410.863281 462.773438 411.339844 C 462.65625 411.398438 462.539062 411.464844 462.421875 411.527344 C 461.417969 412.054688 460.40625 412.570312 459.390625 413.078125 C 459.042969 413.253906 458.695312 413.421875 458.351562 413.597656 C 457.660156 413.9375 456.96875 414.277344 456.277344 414.609375 C 455.878906 414.800781 455.480469 414.992188 455.085938 415.179688 C 454.40625 415.5 453.726562 415.816406 453.042969 416.132812 C 452.667969 416.304688 452.292969 416.480469 451.917969 416.648438 C 450.996094 417.066406 450.070312 417.476562 449.140625 417.882812 C 448.910156 417.980469 448.679688 418.082031 448.445312 418.183594 C 447.523438 418.578125 446.601562 418.96875 445.671875 419.351562 C 445.285156 419.511719 444.894531 419.667969 444.507812 419.828125 C 444.085938 419.996094 443.660156 420.164062 443.238281 420.332031 L 443.238281 324.667969 C 443.238281 324.019531 443.207031 323.371094 443.140625 322.722656 C 443.078125 322.074219 442.984375 321.433594 442.855469 320.792969 C 442.730469 320.15625 442.570312 319.527344 442.382812 318.902344 C 442.195312 318.28125 441.976562 317.671875 441.726562 317.070312 C 441.476562 316.46875 441.199219 315.882812 440.894531 315.308594 C 440.585938 314.734375 440.253906 314.175781 439.890625 313.636719 C 439.53125 313.09375 439.144531 312.574219 438.730469 312.070312 C 438.316406 311.566406 437.882812 311.085938 437.421875 310.625 C 436.960938 310.167969 436.480469 309.730469 435.976562 309.316406 C 435.476562 308.90625 434.953125 308.519531 434.410156 308.15625 C 433.871094 307.796875 433.3125 307.460938 432.742188 307.15625 C 432.167969 306.847656 431.578125 306.570312 430.980469 306.320312 C 430.378906 306.074219 429.765625 305.855469 429.144531 305.664062 C 428.519531 305.476562 427.890625 305.316406 427.253906 305.191406 C 426.617188 305.0625 425.972656 304.96875 425.324219 304.90625 C 424.679688 304.839844 424.03125 304.808594 423.378906 304.808594 C 422.730469 304.808594 422.078125 304.839844 421.433594 304.90625 C 420.785156 304.96875 420.140625 305.0625 419.503906 305.191406 C 418.867188 305.316406 418.238281 305.476562 417.613281 305.664062 C 416.992188 305.855469 416.378906 306.074219 415.777344 306.320312 C 415.179688 306.570312 414.589844 306.847656 414.015625 307.15625 C 413.445312 307.460938 412.886719 307.796875 412.347656 308.15625 C 411.804688 308.519531 411.285156 308.90625 410.78125 309.316406 C 410.277344 309.730469 409.796875 310.167969 409.335938 310.625 C 408.875 311.085938 408.441406 311.566406 408.027344 312.070312 C 407.613281 312.574219 407.226562 313.09375 406.867188 313.636719 C 406.503906 314.175781 406.171875 314.734375 405.863281 315.308594 C 405.558594 315.882812 405.28125 316.46875 405.03125 317.070312 C 404.78125 317.671875 404.5625 318.28125 404.375 318.902344 C 404.1875 319.527344 404.027344 320.15625 403.902344 320.792969 C 403.773438 321.433594 403.679688 322.074219 403.617188 322.722656 C 403.550781 323.371094 403.519531 324.019531 403.519531 324.667969 L 403.519531 431.582031 C 402.757812 431.714844 401.996094 431.84375 401.230469 431.96875 C 401.050781 432 400.871094 432.027344 400.6875 432.054688 C 400.078125 432.152344 399.46875 432.25 398.855469 432.34375 C 398.574219 432.386719 398.289062 432.425781 398.007812 432.46875 C 397.492188 432.542969 396.980469 432.617188 396.464844 432.6875 C 396.15625 432.730469 395.84375 432.773438 395.535156 432.816406 C 395.042969 432.882812 394.550781 432.945312 394.058594 433.007812 C 393.742188 433.046875 393.425781 433.089844 393.105469 433.128906 C 392.613281 433.1875 392.121094 433.246094 391.625 433.304688 C 391.316406 433.339844 391.007812 433.375 390.699219 433.410156 C 390.171875 433.46875 389.644531 433.523438 389.117188 433.578125 C 388.84375 433.605469 388.570312 433.632812 388.296875 433.660156 C 387.621094 433.726562 386.949219 433.789062 386.273438 433.851562 C 386.148438 433.859375 386.023438 433.875 385.894531 433.886719 C 385.09375 433.953125 384.292969 434.019531 383.492188 434.078125 C 383.257812 434.097656 383.027344 434.113281 382.792969 434.128906 C 382.222656 434.167969 381.652344 434.207031 381.085938 434.246094 C 380.785156 434.265625 380.488281 434.28125 380.1875 434.296875 C 379.679688 434.328125 379.175781 434.355469 378.667969 434.382812 C 378.347656 434.398438 378.027344 434.414062 377.710938 434.429688 C 377.21875 434.453125 376.730469 434.476562 376.238281 434.496094 C 375.917969 434.507812 375.59375 434.519531 375.273438 434.53125 C 374.773438 434.546875 374.277344 434.5625 373.777344 434.578125 C 373.46875 434.585938 373.160156 434.59375 372.851562 434.601562 C 372.308594 434.617188 371.765625 434.625 371.222656 434.632812 C 370.960938 434.636719 370.699219 434.640625 370.4375 434.644531 C 369.636719 434.65625 368.835938 434.660156 368.03125 434.660156 L 361.578125 434.660156 L 361.578125 500.953125 C 361.566406 511.136719 362.308594 521.261719 363.800781 531.335938 C 365.292969 541.40625 367.519531 551.316406 370.484375 561.058594 C 373.445312 570.796875 377.113281 580.269531 381.480469 589.464844 C 385.847656 598.664062 390.871094 607.488281 396.550781 615.941406 C 399.078125 619.707031 401.71875 623.375 404.472656 626.957031 C 412.714844 637.667969 421.917969 647.476562 432.089844 656.378906 C 432.148438 656.429688 432.207031 656.480469 432.265625 656.53125 C 432.890625 657.074219 433.515625 657.617188 434.144531 658.152344 C 434.382812 658.355469 434.625 658.558594 434.863281 658.761719 C 435.320312 659.148438 435.777344 659.53125 436.238281 659.914062 C 436.511719 660.140625 436.785156 660.367188 437.0625 660.59375 C 437.492188 660.949219 437.925781 661.304688 438.359375 661.65625 C 438.644531 661.886719 438.929688 662.113281 439.214844 662.339844 C 439.648438 662.6875 440.085938 663.035156 440.523438 663.378906 C 440.804688 663.601562 441.085938 663.820312 441.367188 664.042969 C 441.828125 664.398438 442.285156 664.753906 442.75 665.105469 C 443.007812 665.304688 443.265625 665.503906 443.527344 665.703125 C 444.066406 666.109375 444.605469 666.511719 445.144531 666.914062 C 445.332031 667.050781 445.515625 667.191406 445.703125 667.332031 C 446.441406 667.875 447.179688 668.410156 447.921875 668.945312 C 448.007812 669.003906 448.097656 669.0625 448.183594 669.125 C 448.832031 669.59375 449.488281 670.054688 450.144531 670.511719 C 450.199219 670.550781 450.25 670.585938 450.304688 670.625 Z M 430.332031 424.957031 C 425.691406 426.4375 421.046875 427.75 416.425781 428.878906 L 416.425781 324.667969 C 416.425781 324.210938 416.46875 323.757812 416.558594 323.3125 C 416.648438 322.863281 416.777344 322.425781 416.953125 322.003906 C 417.125 321.582031 417.339844 321.179688 417.59375 320.800781 C 417.847656 320.421875 418.136719 320.066406 418.457031 319.746094 C 418.78125 319.421875 419.132812 319.132812 419.511719 318.878906 C 419.890625 318.625 420.292969 318.410156 420.714844 318.234375 C 421.136719 318.058594 421.574219 317.925781 422.019531 317.835938 C 422.46875 317.75 422.921875 317.703125 423.378906 317.703125 C 423.835938 317.703125 424.289062 317.75 424.738281 317.835938 C 425.183594 317.925781 425.621094 318.058594 426.042969 318.234375 C 426.464844 318.410156 426.867188 318.625 427.246094 318.878906 C 427.625 319.132812 427.976562 319.421875 428.300781 319.746094 C 428.621094 320.066406 428.910156 320.421875 429.164062 320.800781 C 429.417969 321.179688 429.632812 321.582031 429.804688 322.003906 C 429.980469 322.425781 430.109375 322.863281 430.199219 323.3125 C 430.289062 323.757812 430.332031 324.210938 430.332031 324.667969 Z M 609.59375 500.953125 C 609.589844 505.664062 609.417969 510.367188 609.074219 515.066406 C 608.730469 519.761719 608.214844 524.441406 607.53125 529.101562 C 606.84375 533.761719 605.992188 538.390625 604.96875 542.988281 C 603.945312 547.585938 602.757812 552.140625 601.402344 556.652344 C 600.046875 561.164062 598.527344 565.621094 596.847656 570.019531 C 595.167969 574.421875 593.332031 578.753906 591.335938 583.023438 C 589.339844 587.289062 587.191406 591.476562 584.886719 595.585938 C 582.585938 599.695312 580.140625 603.714844 577.542969 607.648438 C 574.949219 611.578125 572.214844 615.410156 569.339844 619.140625 C 566.46875 622.875 563.460938 626.496094 560.324219 630.007812 C 557.183594 633.519531 553.921875 636.914062 550.535156 640.191406 C 547.152344 643.464844 543.648438 646.613281 540.035156 649.632812 C 536.417969 652.648438 532.699219 655.535156 528.875 658.28125 C 525.046875 661.03125 521.128906 663.636719 517.113281 666.097656 C 513.097656 668.558594 508.996094 670.871094 504.8125 673.035156 C 500.628906 675.199219 496.371094 677.207031 492.039062 679.058594 C 487.710938 677.207031 483.453125 675.199219 479.265625 673.035156 C 475.082031 670.871094 470.984375 668.558594 466.96875 666.097656 C 462.953125 663.636719 459.03125 661.03125 455.207031 658.28125 C 451.378906 655.535156 447.660156 652.652344 444.042969 649.632812 C 440.429688 646.613281 436.929688 643.464844 433.542969 640.191406 C 430.15625 636.914062 426.894531 633.523438 423.757812 630.007812 C 420.617188 626.496094 417.613281 622.875 414.738281 619.144531 C 411.863281 615.410156 409.128906 611.578125 406.535156 607.648438 C 403.9375 603.71875 401.492188 599.695312 399.191406 595.585938 C 396.886719 591.476562 394.738281 587.289062 392.742188 583.023438 C 390.746094 578.753906 388.910156 574.421875 387.230469 570.023438 C 385.546875 565.621094 384.03125 561.164062 382.675781 556.652344 C 381.320312 552.140625 380.132812 547.585938 379.109375 542.988281 C 378.085938 538.390625 377.230469 533.761719 376.546875 529.101562 C 375.859375 524.441406 375.347656 519.761719 375.003906 515.066406 C 374.65625 510.367188 374.484375 505.664062 374.484375 500.953125 L 374.484375 447.472656 C 381.109375 447.277344 387.730469 446.777344 394.3125 445.984375 C 399.996094 445.296875 405.644531 444.390625 411.246094 443.265625 L 416.425781 442.222656 L 416.425781 442.140625 C 421.042969 441.085938 425.675781 439.859375 430.332031 438.464844 L 430.332031 438.6875 L 438.898438 435.722656 C 440.007812 435.335938 441.113281 434.941406 442.21875 434.539062 C 442.316406 434.503906 442.414062 434.46875 442.511719 434.433594 C 443.5625 434.046875 444.613281 433.652344 445.65625 433.25 C 445.800781 433.195312 445.945312 433.140625 446.089844 433.085938 C 447.109375 432.691406 448.125 432.289062 449.136719 431.878906 L 449.621094 431.679688 C 450.628906 431.273438 451.628906 430.855469 452.628906 430.429688 C 452.789062 430.363281 452.945312 430.292969 453.105469 430.226562 C 454.113281 429.796875 455.117188 429.355469 456.121094 428.910156 C 456.253906 428.851562 456.386719 428.789062 456.519531 428.730469 C 457.550781 428.269531 458.574219 427.800781 459.597656 427.324219 C 459.675781 427.285156 459.757812 427.246094 459.835938 427.210938 C 461.976562 426.207031 464.097656 425.167969 466.203125 424.097656 C 466.292969 424.050781 466.378906 424.007812 466.464844 423.964844 C 467.46875 423.453125 468.464844 422.933594 469.460938 422.402344 C 469.589844 422.335938 469.71875 422.265625 469.851562 422.199219 C 470.820312 421.679688 471.789062 421.152344 472.75 420.621094 L 473.1875 420.378906 C 474.144531 419.847656 475.09375 419.304688 476.042969 418.757812 C 476.1875 418.679688 476.328125 418.59375 476.46875 418.511719 C 477.425781 417.957031 478.378906 417.398438 479.328125 416.828125 C 479.445312 416.757812 479.566406 416.683594 479.683594 416.613281 C 480.65625 416.027344 481.628906 415.429688 482.59375 414.828125 L 482.796875 414.699219 C 483.800781 414.074219 484.800781 413.433594 485.796875 412.789062 L 485.820312 412.773438 C 486.804688 412.132812 487.785156 411.484375 488.761719 410.828125 C 488.851562 410.769531 488.941406 410.710938 489.027344 410.648438 C 489.960938 410.019531 490.886719 409.382812 491.808594 408.742188 C 491.886719 408.6875 491.964844 408.636719 492.039062 408.582031 C 500.628906 414.597656 509.605469 419.957031 518.976562 424.660156 C 528.347656 429.363281 538.007812 433.363281 547.964844 436.65625 C 557.917969 439.949219 568.058594 442.5 578.382812 444.3125 C 588.710938 446.125 599.113281 447.179688 609.59375 447.472656 Z M 609.59375 500.953125 " fill-opacity="1" fill-rule="nonzero"/></g></svg>