<svg xmlns="http://www.w3.org/2000/svg" xmlns:xlink="http://www.w3.org/1999/xlink" width="1024" zoomAndPan="magnify" viewBox="0 0 768 767.999994" height="1024" preserveAspectRatio="xMidYMid meet" version="1.0"><defs><clipPath id="6cc50ef770"><path d="M 85.632812 50 L 708.882812 50 L 708.882812 691.503906 L 85.632812 691.503906 Z M 85.632812 50 " clip-rule="nonzero"/></clipPath></defs><path fill="#000000" d="M 218.867188 446.269531 C 215.417969 444.957031 211.566406 446.695312 210.253906 450.175781 L 196.507812 486.679688 L 182.757812 450.175781 C 181.445312 446.722656 177.59375 444.957031 174.144531 446.269531 C 170.695312 447.578125 168.953125 451.433594 170.238281 454.886719 L 190.246094 507.980469 C 191.238281 510.578125 193.722656 512.316406 196.507812 512.316406 C 199.289062 512.316406 201.777344 510.601562 202.765625 507.980469 L 222.773438 454.886719 C 224.085938 451.433594 222.320312 447.578125 218.867188 446.269531 Z M 218.867188 446.269531 " fill-opacity="1" fill-rule="nonzero"/><path fill="#000000" d="M 326.71875 450.175781 C 325.730469 447.578125 323.242188 445.839844 320.460938 445.839844 C 317.679688 445.839844 315.191406 447.550781 314.203125 450.175781 L 294.195312 503.269531 C 292.882812 506.722656 294.648438 510.574219 298.097656 511.886719 C 301.550781 513.199219 305.402344 511.460938 306.710938 507.980469 L 312.4375 492.78125 L 328.484375 492.78125 L 334.210938 507.980469 C 335.226562 510.65625 337.765625 512.316406 340.46875 512.316406 C 341.246094 512.316406 342.046875 512.183594 342.824219 511.886719 C 346.273438 510.574219 348.011719 506.722656 346.726562 503.269531 Z M 317.492188 479.425781 L 320.460938 471.503906 L 323.429688 479.425781 L 317.464844 479.425781 Z M 317.492188 479.425781 " fill-opacity="1" fill-rule="nonzero"/><path fill="#000000" d="M 235.453125 445.839844 C 231.761719 445.839844 228.765625 448.835938 228.765625 452.53125 L 228.765625 505.625 C 228.765625 509.320312 231.761719 512.316406 235.453125 512.316406 C 239.144531 512.316406 242.140625 509.320312 242.140625 505.625 L 242.140625 452.53125 C 242.140625 448.835938 239.144531 445.839844 235.453125 445.839844 Z M 235.453125 445.839844 " fill-opacity="1" fill-rule="nonzero"/><path fill="#000000" d="M 274.238281 472.386719 L 267.765625 472.386719 C 264.074219 472.386719 261.078125 469.445312 261.078125 465.804688 C 261.078125 462.164062 264.074219 459.21875 267.765625 459.21875 L 280.125 459.21875 C 283.816406 459.21875 286.8125 456.222656 286.8125 452.53125 C 286.8125 448.835938 283.816406 445.839844 280.125 445.839844 L 267.765625 445.839844 C 256.691406 445.839844 247.703125 454.804688 247.703125 465.804688 C 247.703125 476.804688 256.691406 485.769531 267.765625 485.769531 L 274.238281 485.769531 C 277.929688 485.769531 280.925781 488.710938 280.925781 492.351562 C 280.925781 495.992188 277.929688 498.933594 274.238281 498.933594 L 254.390625 498.933594 C 250.699219 498.933594 247.703125 501.933594 247.703125 505.625 C 247.703125 509.320312 250.699219 512.316406 254.390625 512.316406 L 274.238281 512.316406 C 285.3125 512.316406 294.300781 503.351562 294.300781 492.351562 C 294.300781 481.351562 285.3125 472.386719 274.238281 472.386719 Z M 274.238281 472.386719 " fill-opacity="1" fill-rule="nonzero"/><path fill="#000000" d="M 335.679688 240.605469 C 319.097656 215.582031 290.6875 199.042969 258.511719 199.042969 C 226.332031 199.042969 197.925781 215.582031 181.339844 240.578125 C 181.070312 240.898438 180.859375 241.246094 180.671875 241.621094 C 171.363281 256.074219 165.933594 273.226562 165.933594 291.640625 C 165.933594 342.699219 207.445312 384.261719 258.511719 384.261719 C 290.714844 384.261719 319.148438 367.695312 335.734375 342.648438 C 335.921875 342.40625 336.082031 342.136719 336.242188 341.871094 C 345.632812 327.394531 351.089844 310.160156 351.089844 291.640625 C 351.089844 273.121094 345.683594 256.101562 336.402344 241.675781 C 336.214844 241.300781 335.976562 240.925781 335.707031 240.605469 Z M 327.683594 330.121094 C 319.472656 326.644531 311.207031 323.699219 303.019531 321.425781 C 305.402344 314.144531 307.058594 306.410156 307.675781 298.355469 L 337.394531 298.355469 C 336.429688 309.808594 333.03125 320.570312 327.710938 330.121094 Z M 179.601562 298.355469 L 209.292969 298.355469 C 209.90625 306.410156 211.59375 314.171875 213.945312 321.453125 C 205.761719 323.726562 197.523438 326.644531 189.285156 330.121094 C 183.960938 320.570312 180.539062 309.785156 179.574219 298.328125 Z M 189.285156 253.183594 C 197.496094 256.660156 205.734375 259.578125 213.945312 261.878906 C 211.566406 269.1875 209.90625 276.921875 209.292969 284.976562 L 179.601562 284.976562 C 180.5625 273.523438 183.960938 262.738281 189.3125 253.183594 Z M 251.796875 284.976562 L 222.695312 284.976562 C 223.335938 278.042969 224.914062 271.355469 227.082031 265.011719 C 235.371094 266.671875 243.636719 267.714844 251.796875 268.089844 Z M 251.796875 298.355469 L 251.796875 315.242188 C 243.664062 315.617188 235.398438 316.632812 227.082031 318.320312 C 224.914062 311.953125 223.335938 305.261719 222.695312 298.355469 Z M 265.171875 298.355469 L 294.273438 298.355469 C 293.632812 305.261719 292.054688 311.953125 289.886719 318.292969 C 281.566406 316.632812 273.277344 315.589844 265.171875 315.242188 Z M 265.171875 284.976562 L 265.171875 268.089844 C 273.328125 267.742188 281.621094 266.699219 289.914062 265.039062 C 292.082031 271.382812 293.660156 278.070312 294.273438 284.976562 Z M 265.171875 254.679688 L 265.171875 222.648438 C 271.296875 229.953125 278.8125 240.257812 284.722656 252.433594 C 278.144531 253.636719 271.617188 254.386719 265.171875 254.679688 Z M 251.796875 254.679688 C 245.351562 254.359375 238.851562 253.636719 232.296875 252.40625 C 238.207031 240.257812 245.699219 229.980469 251.796875 222.675781 Z M 251.796875 328.625 L 251.796875 360.628906 C 245.671875 353.324219 238.207031 343.046875 232.296875 330.898438 C 238.851562 329.695312 245.375 328.945312 251.796875 328.625 Z M 265.171875 328.625 C 271.589844 328.945312 278.117188 329.667969 284.699219 330.871094 C 278.785156 343.023438 271.296875 353.324219 265.171875 360.628906 Z M 307.675781 284.976562 C 307.058594 276.921875 305.402344 269.1875 303.019531 261.90625 C 311.234375 259.632812 319.472656 256.714844 327.710938 253.210938 C 333.03125 262.761719 336.429688 273.523438 337.394531 284.976562 Z M 320.085938 241.917969 C 312.757812 244.914062 305.429688 247.375 298.152344 249.355469 C 291.570312 234.929688 282.878906 222.863281 275.761719 214.351562 C 293.523438 218.3125 309.039062 228.242188 320.085938 241.941406 Z M 241.230469 214.351562 C 234.117188 222.863281 225.421875 234.90625 218.867188 249.328125 C 211.566406 247.347656 204.238281 244.886719 196.933594 241.917969 C 208.007812 228.242188 223.496094 218.3125 241.257812 214.351562 Z M 196.90625 341.414062 C 204.238281 338.417969 211.59375 335.957031 218.839844 334.003906 C 225.421875 348.425781 234.117188 360.46875 241.203125 368.980469 C 223.46875 365.019531 207.953125 355.089844 196.878906 341.414062 Z M 275.738281 368.980469 C 282.851562 360.46875 291.546875 348.402344 298.125 333.976562 C 305.402344 335.957031 312.730469 338.417969 320.058594 341.414062 C 308.984375 355.089844 293.472656 365.019531 275.738281 368.980469 Z M 275.738281 368.980469 " fill-opacity="1" fill-rule="nonzero"/><path fill="#000000" d="M 495.855469 147.207031 L 488.550781 154.511719 C 486.222656 156.839844 485.929688 160.507812 487.855469 163.183594 L 523.644531 212.53125 L 481.488281 214.644531 L 454.257812 187.402344 C 451.636719 184.78125 447.410156 184.78125 444.789062 187.402344 L 436.390625 195.804688 C 434.171875 198.027344 433.796875 201.453125 435.453125 204.101562 L 454.445312 234.207031 L 435.453125 264.316406 C 433.796875 266.964844 434.171875 270.417969 436.390625 272.613281 L 444.789062 281.015625 C 447.410156 283.636719 451.636719 283.636719 454.257812 281.015625 L 481.488281 253.773438 L 523.644531 255.886719 L 487.855469 305.234375 C 485.929688 307.910156 486.222656 311.578125 488.550781 313.90625 L 495.855469 321.210938 C 497.109375 322.46875 498.796875 323.164062 500.589844 323.164062 C 502.378906 323.164062 504.066406 322.46875 505.324219 321.210938 L 568.371094 258.132812 L 609.109375 260.167969 C 617.722656 260.597656 630.613281 255.324219 637.863281 248.417969 C 642.382812 244.109375 644.765625 239.1875 644.765625 234.210938 C 644.765625 229.230469 642.382812 224.28125 637.863281 220 C 630.613281 213.09375 617.640625 207.847656 609.109375 208.25 L 568.371094 210.285156 L 505.324219 147.207031 C 502.703125 144.585938 498.476562 144.585938 495.855469 147.207031 Z M 560.988281 221.84375 C 562.324219 223.183594 564.195312 223.90625 566.042969 223.796875 L 609.75 221.605469 C 613.761719 221.417969 623.207031 224.519531 628.609375 229.660156 C 630.347656 231.320312 631.363281 232.976562 631.363281 234.183594 C 631.363281 235.386719 630.347656 237.046875 628.609375 238.703125 C 623.207031 243.84375 613.628906 246.949219 609.75 246.761719 L 566.042969 244.566406 C 564.171875 244.484375 562.324219 245.179688 560.988281 246.519531 L 509.789062 297.742188 L 541.726562 253.71875 C 543.171875 251.738281 543.414062 249.113281 542.34375 246.894531 C 541.273438 244.671875 539.105469 243.226562 536.644531 243.09375 L 479.1875 240.203125 C 479.1875 240.203125 478.976562 240.203125 478.867188 240.203125 C 477.101562 240.203125 475.390625 240.898438 474.132812 242.15625 L 450.03125 266.269531 L 467.417969 238.703125 C 468.089844 237.632812 468.460938 236.402344 468.460938 235.144531 L 468.460938 233.21875 C 468.460938 231.960938 468.113281 230.730469 467.417969 229.660156 L 450.03125 202.09375 L 474.132812 226.207031 C 475.472656 227.546875 477.261719 228.242188 479.1875 228.160156 L 536.644531 225.269531 C 539.105469 225.136719 541.273438 223.691406 542.34375 221.46875 C 543.414062 219.25 543.171875 216.652344 541.726562 214.644531 L 509.789062 170.625 Z M 560.988281 221.84375 " fill-opacity="1" fill-rule="nonzero"/><g clip-path="url(#6cc50ef770)"><path fill="#000000" d="M 520.382812 52.257812 C 517.761719 49.632812 513.535156 49.632812 510.914062 52.257812 L 407.101562 156.117188 C 405.363281 155.796875 403.597656 155.636719 401.804688 155.636719 L 115.136719 155.636719 C 98.847656 155.636719 85.605469 168.882812 85.605469 185.183594 L 85.605469 565.652344 C 85.605469 581.949219 98.847656 595.195312 115.136719 595.195312 L 162.667969 595.195312 L 256.71875 689.316406 C 257.976562 690.574219 259.660156 691.269531 261.453125 691.269531 C 263.246094 691.269531 264.929688 690.574219 266.1875 689.316406 L 360.261719 595.195312 L 401.832031 595.195312 C 418.121094 595.195312 431.363281 581.949219 431.363281 565.652344 L 431.363281 524.0625 L 542.101562 413.269531 L 706.957031 248.339844 C 708.214844 247.082031 708.910156 245.394531 708.910156 243.601562 C 708.910156 241.808594 708.214844 240.125 706.957031 238.867188 Z M 261.453125 675.105469 L 181.582031 595.195312 L 341.324219 595.195312 Z M 417.988281 565.652344 C 417.988281 574.5625 410.738281 581.816406 401.832031 581.816406 L 115.136719 581.816406 C 106.230469 581.816406 98.980469 574.5625 98.980469 565.652344 L 98.980469 185.183594 C 98.980469 176.269531 106.230469 169.019531 115.136719 169.019531 L 401.804688 169.019531 C 403.597656 169.019531 405.335938 169.3125 407.019531 169.875 C 413.574219 172.09375 417.988281 178.25 417.988281 185.183594 Z M 431.363281 311.925781 L 527.925781 408.507812 L 431.363281 505.117188 Z M 537.367188 399.058594 L 431.335938 293.003906 L 431.335938 185.183594 C 431.335938 184.164062 431.253906 183.148438 431.148438 182.132812 C 431.121094 181.863281 431.09375 181.59375 431.039062 181.328125 C 430.933594 180.445312 430.773438 179.589844 430.585938 178.730469 C 430.558594 178.597656 430.53125 178.492188 430.507812 178.359375 C 430.292969 177.394531 429.996094 176.457031 429.675781 175.519531 C 429.597656 175.28125 429.515625 175.066406 429.410156 174.824219 C 429.113281 174.050781 428.792969 173.300781 428.445312 172.550781 C 428.367188 172.390625 428.285156 172.203125 428.207031 172.042969 C 427.777344 171.160156 427.296875 170.328125 426.789062 169.5 C 426.679688 169.3125 426.546875 169.125 426.441406 168.964844 C 425.984375 168.296875 425.53125 167.625 425.023438 166.984375 C 424.886719 166.824219 424.753906 166.636719 424.621094 166.476562 C 424.007812 165.726562 423.363281 165.003906 422.667969 164.308594 C 422.5625 164.199219 422.429688 164.066406 422.292969 163.960938 C 421.679688 163.371094 421.0625 162.808594 420.394531 162.273438 C 420.289062 162.195312 420.207031 162.085938 420.101562 162.007812 L 515.621094 66.441406 L 692.726562 243.601562 L 537.339844 399.058594 Z M 537.367188 399.058594 " fill-opacity="1" fill-rule="nonzero"/></g></svg>